<svg width="306" height="40" viewBox="0 0 306 40" fill="none" xmlns="http://www.w3.org/2000/svg">
<path d="M0 4C0 1.79086 1.79086 0 4 0H302C304.209 0 306 1.79086 306 4V36C306 38.2091 304.209 40 302 40H4C1.79086 40 0 38.2091 0 36V4Z" fill="url(#paint0_linear)"/>
<path d="M125.261 27H130.517C133.955 27 135.375 25.3239 135.375 23.1364C135.375 20.8352 133.784 19.5852 132.449 19.5V19.358C133.699 19.017 134.807 18.1932 134.807 16.3182C134.807 14.1875 133.386 12.4545 130.347 12.4545H125.261V27ZM127.023 25.4375V20.3807H130.602C132.506 20.3807 133.699 21.6591 133.699 23.1364C133.699 24.4148 132.818 25.4375 130.517 25.4375H127.023ZM127.023 18.8466V14.017H130.347C132.278 14.017 133.131 15.0398 133.131 16.3182C133.131 17.8523 131.881 18.8466 130.29 18.8466H127.023ZM142.474 27.2273C145.428 27.2273 147.417 24.983 147.417 21.6023C147.417 18.1932 145.428 15.9489 142.474 15.9489C139.519 15.9489 137.531 18.1932 137.531 21.6023C137.531 24.983 139.519 27.2273 142.474 27.2273ZM142.474 25.7216C140.229 25.7216 139.207 23.7898 139.207 21.6023C139.207 19.4148 140.229 17.4545 142.474 17.4545C144.718 17.4545 145.741 19.4148 145.741 21.6023C145.741 23.7898 144.718 25.7216 142.474 25.7216ZM151.652 24.5284V16.0909H149.975V27H151.936L157.163 18.5625V27H158.839V16.0909H156.907L151.652 24.5284ZM155.799 12.4545C155.799 13.1932 155.402 13.8466 154.407 13.8466C153.413 13.8466 153.044 13.1932 153.044 12.4545H151.481C151.481 13.9886 152.618 15.0682 154.407 15.0682C156.225 15.0682 157.362 13.9886 157.362 12.4545H155.799ZM160.425 17.6534H164.033V27H165.709V17.6534H169.288V16.0909H160.425V17.6534ZM173.409 24.5284V16.0909H171.733V27H173.694L178.921 18.5625V27H180.597V16.0909H178.665L173.409 24.5284Z" fill="white"/>
<defs>
<linearGradient id="paint0_linear" x1="306" y1="3.91307" x2="-0.922027" y2="28.4814" gradientUnits="userSpaceOnUse">
<stop offset="0.146395" stop-color="#81E8B1"/>
<stop offset="0.795914" stop-color="#7ED6D9"/>
</linearGradient>
</defs>
</svg>
