<svg width="48" height="48" viewBox="0 0 48 48" fill="none" xmlns="http://www.w3.org/2000/svg">
<path d="M44 46.4V42.2576C45.5363 41.6098 46.4978 40.0644 46.4 38.4C46.4 36.1944 44.9648 34.4 43.2 34.4C41.4352 34.4 40 36.1944 40 38.4C39.9022 40.0644 40.8637 41.6098 42.4 42.2576V46.4H38.4V21.6C38.4001 21.2968 38.2288 21.0195 37.9576 20.884L32 17.9056V13.6C32.0002 13.2427 31.7635 12.9286 31.42 12.8304L20.8 9.796V0.8C20.8 0.3582 20.4418 0 20 0H4C3.5582 0 3.2 0.3582 3.2 0.8V46.4H0V48H48V46.4H44ZM19.2 46.4H4.8V44.8H12V43.2H4.8V40H12V38.4H4.8V35.2H12V33.6H4.8V30.4H12V28.8H4.8V25.6H12V24H4.8V20.8H12V19.2H4.8V16H12V14.4H4.8V11.2H12V9.6H4.8V6.4H12V4.8H4.8V1.6H19.2V46.4ZM30.4 46.4H20.8V44.8H26.4V43.2H20.8V40H26.4V38.4H20.8V35.2H26.4V33.6H20.8V30.4H26.4V28.8H20.8V25.6H26.4V24H20.8V20.8H26.4V19.2H20.8V16H26.4V14.4H20.8V11.4608L30.4 14.2032V46.4ZM36.8 46.4H32V44.8H34.4V43.2H32V40H34.4V38.4H32V35.2H34.4V33.6H32V30.4H34.4V28.8H32V25.6H34.4V24H32V19.6944L36.8 22.0944V46.4ZM42.4 40.456C41.8627 39.9093 41.5735 39.166 41.6 38.4C41.6 37.0992 42.3328 36 43.2 36C44.0672 36 44.8 37.0992 44.8 38.4C44.8259 39.1659 44.5368 39.909 44 40.456V39.2H42.4V40.456Z" fill="#939393"/>
</svg>
