<svg width="52" height="22" viewBox="0 0 52 22" fill="none" xmlns="http://www.w3.org/2000/svg">
<path d="M41.8583 1.32995L51.4384 9.6494C52.1873 10.3953 52.1873 11.6047 51.4384 12.3506L41.8583 20.6701C41.1094 21.416 39.8953 21.416 39.1465 20.6701C38.3976 19.9242 38.3976 18.7148 39.1465 17.9689L45.4532 12.9101L2.13123 12.9101C1.42503 12.9101 0.852539 12.3376 0.852539 11.6314L0.852539 10.3687C0.852539 9.66246 1.42503 9.08997 2.13123 9.08997L45.4532 9.08996L39.1465 4.03118C38.3976 3.28525 38.3976 2.07587 39.1465 1.32995C39.8953 0.584027 41.1094 0.584027 41.8583 1.32995Z" fill="#CACACA"/>
</svg>
