<svg width="52" height="22" viewBox="0 0 52 22" fill="none" xmlns="http://www.w3.org/2000/svg">
<path d="M10.1417 20.67L0.561551 12.3506C-0.187289 11.6047 -0.187289 10.3953 0.561551 9.64937L10.1417 1.32991C10.8906 0.583992 12.1047 0.583992 12.8535 1.32991C13.6024 2.07584 13.6024 3.28522 12.8535 4.03114L6.5468 9.08993L49.8688 9.08992C50.575 9.08992 51.1475 9.66241 51.1475 10.3686L51.1475 11.6313C51.1475 12.3375 50.575 12.91 49.8688 12.91L6.5468 12.91L12.8535 17.9688C13.6024 18.7147 13.6024 19.9241 12.8535 20.67C12.1047 21.416 10.8906 21.416 10.1417 20.67Z" fill="#CACACA"/>
</svg>
