<svg width="20" height="20" viewBox="0 0 20 20" fill="none" xmlns="http://www.w3.org/2000/svg">
<path d="M17.758 0H2.19511C1.65008 0.00829503 1.20932 0.448745 1.19775 0.996623V2.68369H18.7505V0.996623C18.7413 0.449639 18.3022 0.008539 17.758 0Z" fill="#E8AD00"/>
<path d="M3.74072 3.651V19.8194L16.208 19.7693V3.651H3.74072ZM8.26796 17.9792H6.10882V17.0119H8.26796V17.9792ZM8.26796 15.1378H6.10882V14.1705H8.26796V15.1378ZM8.26796 12.2963H6.10882V11.329H8.26796V12.2963ZM8.26796 9.45484H6.10882V8.48753H8.26796V9.45484ZM8.26796 6.61338H6.10882V5.64607H8.26796V6.61338ZM13.631 18.1001H11.5415V17.1328H13.631V18.1001ZM13.631 15.1982H11.5415V14.2309H13.631V15.1982ZM13.631 12.2963H11.5415V11.329H13.631V12.2963ZM13.631 9.45484H11.5415V8.48753H13.631V9.45484ZM13.631 6.61338H11.5415V5.64607H13.631V6.61338Z" fill="#E8AD00"/>
</svg>
