<svg width="20" height="20" viewBox="0 0 20 20" fill="none" xmlns="http://www.w3.org/2000/svg">
<g clip-path="url(#clip0)">
<path d="M14.9091 3.00769H5.04246C4.69693 3.01473 4.41749 3.38834 4.41016 3.85307V5.28411H15.5384V3.85307C15.5325 3.38909 15.2541 3.01493 14.9091 3.00769Z" fill="#FF4242"/>
<path d="M15.3848 7.64307V19.7731L20.0002 19.6649V7.64307H15.3848Z" fill="#FF4242"/>
<path d="M5.38477 6.10461V19.8194L14.5643 19.7769V6.10461H5.38477ZM8.7181 18.2585H7.12836V17.4379H8.7181V18.2585ZM8.7181 15.8482H7.12836V15.0277H8.7181V15.8482ZM8.7181 13.4379H7.12836V12.6174H8.7181V13.4379ZM8.7181 11.0277H7.12836V10.2072H8.7181V11.0277ZM8.7181 8.61743H7.12836V7.79692H8.7181V8.61743ZM12.6668 18.361H11.1284V17.5405H12.6668V18.361ZM12.6668 15.8995H11.1284V15.079H12.6668V15.8995ZM12.6668 13.4379H11.1284V12.6174H12.6668V13.4379ZM12.6668 11.0277H11.1284V10.2072H12.6668V11.0277ZM12.6668 8.61743H11.1284V7.79692H12.6668V8.61743Z" fill="#FF4242"/>
<path d="M8.7181 8.61743H7.12836V7.79692H8.7181V8.61743Z" fill="#FF4242"/>
<path d="M12.6668 8.61743H11.1284V7.79692H12.6668V8.61743Z" fill="#FF4242"/>
<path d="M12.6668 11.0277H11.1284V10.2072H12.6668V11.0277Z" fill="#FF4242"/>
<path d="M8.7181 11.0277H7.12836V10.2072H8.7181V11.0277Z" fill="#FF4242"/>
<path d="M8.7181 13.4379H7.12836V12.6174H8.7181V13.4379Z" fill="#FF4242"/>
<path d="M12.6668 13.4379H11.1284V12.6174H12.6668V13.4379Z" fill="#FF4242"/>
<path d="M12.6668 15.8995H11.1284V15.079H12.6668V15.8995Z" fill="#FF4242"/>
<path d="M8.7181 15.8482H7.12836V15.0277H8.7181V15.8482Z" fill="#FF4242"/>
<path d="M8.7181 18.2585H7.12836V17.4379H8.7181V18.2585Z" fill="#FF4242"/>
<path d="M12.6668 18.361H11.1284V17.5405H12.6668V18.361Z" fill="#FF4242"/>
<path d="M20.0002 12.4124H15.3848V14.0021H20.0002V12.4124Z" fill="#FF4242"/>
<path d="M0.621538 7.95079C0.287436 7.94171 0.00928205 8.20515 0.000153846 8.5392C0.000102564 8.54182 5.12821e-05 8.54443 0 8.5471V19.8441L4.5641 19.8231V7.95079H0.621538ZM2.61538 18.361H1.79487V16.6175H2.61538V18.361ZM2.61538 14.7713H1.79487V12.9764H2.61538V14.7713ZM2.61538 11.1816H1.79487V9.38669H2.61538V11.1816Z" fill="#FF4242"/>
<path d="M2.61538 11.1816H1.79487V9.38669H2.61538V11.1816Z" fill="#FF4242"/>
<path d="M2.61538 14.7713H1.79487V12.9764H2.61538V14.7713Z" fill="#FF4242"/>
<path d="M2.61538 18.361H1.79487V16.6175H2.61538V18.361Z" fill="#FF4242"/>
<path d="M20.0002 14.8226H15.3848V16.5662H20.0002V14.8226Z" fill="#FF4242"/>
<path d="M19.3783 0.155884H11.2898C10.9481 0.156653 10.6705 0.431833 10.6665 0.773474V2.00204H19.9998V0.773474C19.9968 0.43214 19.7196 0.156807 19.3783 0.155884Z" fill="#FF4242"/>
<path d="M20.0002 10.0021H15.3848V11.5918H20.0002V10.0021Z" fill="#FF4242"/>
<path d="M16.3591 4.41229V5.07705C16.3545 5.43152 16.1687 5.71935 15.935 5.73404H15.3848V6.82254H20.0002V4.41229H16.3591Z" fill="#FF4242"/>
<path d="M15.1992 2.00201C15.8526 2.15752 16.3592 3.07109 16.3592 4.12111V4.41229H20.0002V2.00201H15.1992Z" fill="#FF4242"/>
<path d="M20.0002 7.64307H15.3848V9.18153H20.0002V7.64307Z" fill="#FF4242"/>
</g>
<defs>
<clipPath id="clip0">
<rect width="20" height="20" fill="white"/>
</clipPath>
</defs>
</svg>
