<svg width="32" height="32" viewBox="0 0 32 32" fill="none" xmlns="http://www.w3.org/2000/svg">
<path d="M21.9404 20.402L16.4788 16.0557V10.2394C16.4788 9.554 15.9248 9 15.2394 9C14.554 9 14 9.554 14 10.2394V16.6755C14 17.0659 14.1834 17.434 14.4957 17.667L20.4531 22.3851C20.6762 22.5524 20.9365 22.6329 21.1955 22.6329C21.5735 22.6329 21.9453 22.4631 22.1883 22.1359C22.5998 21.5893 22.4883 20.8123 21.9404 20.402Z" fill="#939393"/>
<path d="M16 0C7.17706 0 0 7.17706 0 16C0 24.8229 7.17706 32 16 32C24.8229 32 32 24.8229 32 16C32 7.17706 24.8229 0 16 0ZM16 29.5213C8.54531 29.5213 2.47869 23.4547 2.47869 16C2.47869 8.54531 8.54531 2.47869 16 2.47869C23.4559 2.47869 29.5213 8.54531 29.5213 16C29.5213 23.4547 23.4547 29.5213 16 29.5213Z" fill="#CACACA"/>
<circle cx="16" cy="16" r="14.5" stroke="#80CBA3" stroke-width="3"/>
<mask id="path-4-inside-1" fill="white">
<path d="M27.6621 26.9543C25.8606 28.8721 23.614 30.3161 21.1212 31.1583C18.6284 32.0005 15.9664 32.2149 13.371 31.7825C10.7755 31.3502 8.32675 30.2844 6.24157 28.6796C4.15639 27.0748 2.49917 24.9806 1.4167 22.5823C0.334224 20.1841 -0.140087 17.5559 0.0357788 14.9306C0.211645 12.3053 1.03226 9.76381 2.42493 7.53138C3.8176 5.29895 5.73935 3.44443 8.01994 2.1321C10.3005 0.819773 12.8696 0.0901389 15.4995 0.00783022L15.5934 3.00977C13.4572 3.07662 11.3704 3.6693 9.5179 4.73528C7.6654 5.80127 6.1044 7.30767 4.97315 9.12105C3.8419 10.9344 3.17532 12.9988 3.03247 15.1313C2.88961 17.2639 3.27489 19.3987 4.15417 21.3468C5.03345 23.2948 6.37959 24.996 8.07335 26.2995C9.76712 27.603 11.7562 28.4688 13.8645 28.8199C15.9727 29.1711 18.1351 28.997 20.1599 28.3129C22.1848 27.6288 24.0097 26.4558 25.473 24.898L27.6621 26.9543Z"/>
</mask>
<path d="M27.6621 26.9543C25.8606 28.8721 23.614 30.3161 21.1212 31.1583C18.6284 32.0005 15.9664 32.2149 13.371 31.7825C10.7755 31.3502 8.32675 30.2844 6.24157 28.6796C4.15639 27.0748 2.49917 24.9806 1.4167 22.5823C0.334224 20.1841 -0.140087 17.5559 0.0357788 14.9306C0.211645 12.3053 1.03226 9.76381 2.42493 7.53138C3.8176 5.29895 5.73935 3.44443 8.01994 2.1321C10.3005 0.819773 12.8696 0.0901389 15.4995 0.00783022L15.5934 3.00977C13.4572 3.07662 11.3704 3.6693 9.5179 4.73528C7.6654 5.80127 6.1044 7.30767 4.97315 9.12105C3.8419 10.9344 3.17532 12.9988 3.03247 15.1313C2.88961 17.2639 3.27489 19.3987 4.15417 21.3468C5.03345 23.2948 6.37959 24.996 8.07335 26.2995C9.76712 27.603 11.7562 28.4688 13.8645 28.8199C15.9727 29.1711 18.1351 28.997 20.1599 28.3129C22.1848 27.6288 24.0097 26.4558 25.473 24.898L27.6621 26.9543Z" stroke="#939393" stroke-width="6" mask="url(#path-4-inside-1)"/>
</svg>
