<svg width="48" height="48" viewBox="0 0 48 48" fill="none" xmlns="http://www.w3.org/2000/svg">
<rect x="1" y="1" width="46" height="46" rx="23" fill="white" stroke="#CACACA" stroke-width="2"/>
<path d="M25.4658 24.0001L31.6959 17.7697C32.1014 17.3645 32.1014 16.7092 31.6959 16.3039C31.2907 15.8987 30.6354 15.8987 30.2302 16.3039L23.9999 22.5343L17.7698 16.3039C17.3644 15.8987 16.7093 15.8987 16.3041 16.3039C15.8986 16.7092 15.8986 17.3645 16.3041 17.7697L22.5342 24.0001L16.3041 30.2305C15.8986 30.6358 15.8986 31.291 16.3041 31.6963C16.506 31.8984 16.7716 32 17.037 32C17.3023 32 17.5677 31.8984 17.7698 31.6963L23.9999 25.4659L30.2302 31.6963C30.4323 31.8984 30.6977 32 30.963 32C31.2284 32 31.4938 31.8984 31.6959 31.6963C32.1014 31.291 32.1014 30.6358 31.6959 30.2305L25.4658 24.0001Z" fill="#CACACA"/>
</svg>
