<svg width="64" height="64" viewBox="0 0 64 64" fill="none" xmlns="http://www.w3.org/2000/svg">
<path d="M62.147 55.9521C62.1465 55.9409 62.147 55.9297 62.1465 55.9185L61.4858 47.2993C61.4126 46.3115 60.8628 45.4155 60.0146 44.9033L59.8643 44.8125L59.4717 41.9312C59.979 41.5093 60.394 40.9805 60.6816 40.3789C60.6919 40.3579 60.7017 40.3369 60.7104 40.3154C60.9775 39.7349 61.1279 39.0894 61.1279 38.4097V34.9395C61.1279 32.9722 59.5269 31.3721 57.5596 31.3721H55.5337C53.8657 31.3721 52.4619 32.5225 52.0728 34.0708C52.0576 34.1001 52.0435 34.1299 52.0312 34.1611C51.9668 34.3237 51.9521 34.4927 51.9775 34.6533C51.9702 34.7476 51.9653 34.8428 51.9653 34.939V38.4097C51.9653 40.0215 52.8032 41.4404 54.0659 42.2568L53.8052 44.853C53.7515 44.8945 53.7012 44.9409 53.6577 44.9932L47.9917 51.7773L44.0664 51.7632C43.9907 51.7622 43.9229 51.771 43.853 51.7871C43.1567 51.9473 42.5391 52.2739 42.0361 52.7197V51.438C42.0361 48.8877 40.4126 46.6265 37.9961 45.8115L36.3755 45.2661C36.1123 45.1782 35.874 45.0273 35.6841 44.8276C35.3765 44.5068 35.207 44.083 35.207 43.6353V41.8901L35.7583 41.5547C36.7236 40.9663 37.3237 39.8979 37.3237 38.7666V35.896C37.3237 35.8931 37.3237 35.8901 37.3237 35.8872V33.3833C37.3237 31.3882 35.7017 29.7646 33.708 29.7646H30.3931C28.3994 29.7646 26.7778 31.3882 26.7778 33.3833V35.542V35.5449V38.7666C26.7778 39.8979 27.3774 40.9663 28.3433 41.5547L28.895 41.8911V43.6357C28.895 44.1133 28.6943 44.5737 28.3462 44.8984C28.167 45.0654 27.9585 45.189 27.7246 45.2671L26.106 45.8115C23.6895 46.6265 22.0659 48.8872 22.0659 51.4385V52.792C21.5493 52.3096 20.9033 51.9561 20.1704 51.7876C20.1006 51.7715 20.0332 51.7632 19.957 51.7637L16.0317 51.7773L10.3657 44.9937C10.3223 44.9414 10.2725 44.8945 10.2183 44.853L9.95752 42.2568C11.2202 41.4404 12.0586 40.0215 12.0586 38.4097V34.9395C12.0586 34.8428 12.0532 34.748 12.0459 34.6533C12.0713 34.4927 12.0566 34.3237 11.9927 34.1616C11.98 34.1304 11.9663 34.1001 11.9507 34.0713C11.562 32.5225 10.1582 31.3721 8.48975 31.3721H6.46484C4.49707 31.3721 2.89648 32.9727 2.89648 34.9395V38.4097C2.89648 39.0898 3.04639 39.7349 3.31348 40.3154C3.32227 40.3369 3.33203 40.3584 3.34229 40.3794C3.62988 40.9805 4.04492 41.5093 4.55225 41.9312L4.15967 44.813L4.00977 44.9038C3.16162 45.416 2.61133 46.312 2.53857 47.2974L1.87793 55.9189C1.87695 55.9302 1.87744 55.9414 1.87695 55.9526C1.87646 55.9653 1.875 55.9775 1.875 55.9907V58.375C1.875 61.4766 4.39941 64 7.50244 64H56.5215C59.6245 64 62.1489 61.4766 62.1489 58.3745V55.9902C62.1489 55.9771 62.1475 55.9648 62.147 55.9521ZM55.5337 33.2471H57.5596C58.4932 33.2471 59.2529 34.0063 59.2529 34.9395V38.4072L58.2773 37.7227V36.8467C58.2773 36.1045 57.8311 35.4482 57.1406 35.1753L54.1362 33.9863C54.4414 33.5405 54.9536 33.2471 55.5337 33.2471ZM53.8403 35.8857L56.4023 36.8994V37.7627C56.4023 38.3477 56.688 38.8979 57.1675 39.2344L58.5615 40.2124C58.0659 40.7656 57.3462 41.1143 56.5464 41.1143C55.0542 41.1143 53.8403 39.9009 53.8403 38.4097V35.8857ZM56.5469 42.9893C56.9463 42.9893 57.334 42.9375 57.7036 42.8408L57.8545 43.9478C57.168 43.8081 56.4619 43.812 55.7798 43.9585L55.8818 42.9404C56.0991 42.9722 56.3208 42.9893 56.5469 42.9893ZM44.1772 53.6387L48.4258 53.6538H48.4292C48.707 53.6538 48.9707 53.5308 49.1484 53.3174L55.02 46.2876C56.063 45.5698 57.4219 45.5269 58.5112 46.1855L59.0449 46.5078C59.374 46.707 59.5874 47.0547 59.6162 47.4404L60.1997 55.0527H55.6323V51.7715L56.1963 51.1792C56.5537 50.8042 56.5391 50.2109 56.1641 49.8535C55.7896 49.4966 55.1958 49.5112 54.8389 49.8857L49.918 55.0527H42.6597C42.8975 54.373 43.4536 53.8379 44.1772 53.6387ZM37.3975 47.5884C39.0508 48.146 40.1611 49.6934 40.1611 51.438V55.0527H33.5303L34.8047 53.7686C35.0493 53.522 35.1377 53.1602 35.0337 52.8286L33.1875 46.9297C33.7378 46.8506 34.2798 46.7217 34.811 46.5444C35.1055 46.7583 35.4331 46.9282 35.7798 47.0439L37.3975 47.5884ZM30.77 42.9941C31.1797 43.1699 31.6152 43.2583 32.0513 43.2583C32.4868 43.2583 32.9229 43.1699 33.3325 42.9941V43.6357C33.3325 44.0913 33.4175 44.5352 33.5786 44.9482C33.0654 45.0703 32.5425 45.1396 32.0132 45.1514C31.4995 45.1621 30.9902 45.1187 30.4893 45.0254C30.6719 44.5889 30.77 44.1162 30.77 43.6357V42.9941ZM31.9917 49.3857L33.0757 52.8491L31.9805 53.9521L31.0063 52.8667L31.9917 49.3857ZM30.3936 31.6396H33.7085C34.6685 31.6396 35.4492 32.4219 35.4492 33.3833V34.5972L30.9233 33.1411C30.6846 33.0645 30.4248 33.0864 30.2021 33.2021L28.6533 34.0107V33.3833C28.6533 32.4219 29.4341 31.6396 30.3936 31.6396ZM28.6533 36.126L30.7222 35.0464L35.4492 36.5669V38.7666C35.4492 39.2485 35.1938 39.7031 34.7832 39.9536L32.772 41.1792C32.3271 41.4497 31.7749 41.4497 31.3306 41.1792L29.3193 39.9536C28.9087 39.7031 28.6533 39.2485 28.6533 38.7666V36.126ZM26.7046 47.5889L28.3203 47.0449C28.6226 46.9443 28.9058 46.8057 29.1675 46.6313C29.6797 46.7852 30.2017 46.895 30.73 46.959L29.0615 52.853C28.9736 53.1626 29.0508 53.4951 29.2656 53.7344L30.4487 55.0527H23.9414V51.438C23.9414 49.6929 25.0518 48.1455 26.7046 47.5889ZM7.47754 41.1143C6.67773 41.1143 5.9585 40.7656 5.4624 40.2124L6.85693 39.2344C7.33594 38.8979 7.62207 38.3477 7.62207 37.7627V36.8994L10.1836 35.8857V38.4097C10.1836 39.9009 8.96973 41.1143 7.47754 41.1143ZM6.46484 33.2471H8.49023C9.07031 33.2471 9.58301 33.5405 9.88818 33.9863L6.88379 35.1753C6.19336 35.4482 5.74707 36.1045 5.74707 36.8467V37.7227L4.77148 38.4072V34.9395C4.77148 34.0063 5.53076 33.2471 6.46484 33.2471ZM7.47754 42.9893C7.70312 42.9893 7.92529 42.9722 8.14209 42.9404L8.24463 43.9585C7.56201 43.812 6.85645 43.8086 6.16992 43.9482L6.3208 42.8413C6.69043 42.9375 7.07812 42.9893 7.47754 42.9893ZM4.4082 47.438C4.43652 47.0547 4.6499 46.707 4.97949 46.5078L5.5127 46.1855C6.60254 45.5269 7.96143 45.5703 9.00391 46.2876L14.8755 53.3174C15.0537 53.5308 15.3174 53.6538 15.5952 53.6538H15.5981L19.8467 53.6387C20.5703 53.8379 21.127 54.373 21.3643 55.0527H14.1064L9.18506 49.8857C8.82812 49.5107 8.23486 49.4966 7.85986 49.8535C7.48486 50.2104 7.4707 50.8042 7.82764 51.1792L8.3916 51.7715V55.0527H3.82471L4.4082 47.438ZM60.2739 58.3745C60.2739 60.4424 58.5908 62.125 56.522 62.125H7.50244C5.43359 62.125 3.75 60.4424 3.75 58.3745V56.9277H8.3916V57.1572C8.3916 58.125 8.75684 59.0464 9.41943 59.7524C9.604 59.9487 9.85303 60.0479 10.103 60.0479C10.333 60.0479 10.5635 59.9639 10.7446 59.7939C11.1221 59.4395 11.1406 58.8462 10.7861 58.4683C10.4512 58.1118 10.2666 57.6465 10.2666 57.1572V53.7402L12.7773 56.376V56.8252C12.7773 58.8447 14.4209 60.4878 16.4414 60.4878H20.3901C20.9077 60.4878 21.3276 60.0684 21.3276 59.5503C21.3276 59.0327 20.9077 58.6128 20.3901 58.6128H16.4414C15.4932 58.6128 14.7153 57.8716 14.6567 56.9385H22.4287C22.4746 56.9385 22.5195 56.9341 22.564 56.9277H41.4604C41.5044 56.9341 41.5498 56.9385 41.5957 56.9385H49.5586C49.4995 57.8716 48.7222 58.6128 47.7739 58.6128H24.4033C23.8857 58.6128 23.4658 59.0327 23.4658 59.5503C23.4658 60.0684 23.8857 60.4878 24.4033 60.4878H47.7739C49.7939 60.4878 51.4375 58.8447 51.4375 56.8252V56.2158C51.4375 56.2031 51.436 56.1904 51.4355 56.1777L53.7573 53.7402V57.1572C53.7573 57.6465 53.5732 58.1118 53.2383 58.4683C52.8838 58.8462 52.9023 59.4395 53.2798 59.7939C53.4604 59.9639 53.6914 60.0479 53.9214 60.0479C54.1714 60.0479 54.4204 59.9487 54.605 59.7524C55.2676 59.0464 55.6323 58.125 55.6323 57.1572V56.9277H60.2739V58.3745Z" fill="#519F72"/>
<path fill-rule="evenodd" clip-rule="evenodd" d="M5.57031 27.8691H5.72754C6.38379 29.2603 7.78467 30.1523 9.32959 30.1523C10.876 30.1523 12.2764 29.2598 12.9307 27.8691H26.3892C27.5576 27.8691 28.5503 27.1152 28.9136 26.0693C29.7104 26.6499 30.6841 26.9829 31.7124 26.9829C32.98 26.9829 34.1646 26.478 35.0366 25.6245C35.2432 26.895 36.3447 27.8691 37.6729 27.8691H51.1318C51.7876 29.2598 53.188 30.1523 54.7324 30.1523C56.2778 30.1523 57.6787 29.2598 58.3345 27.8691H58.4917C59.9658 27.8691 61.1655 26.6699 61.1655 25.1958V10.4624C61.1655 8.98828 59.9658 7.78906 58.4917 7.78906H47.8799V9.66406H58.4917C58.9321 9.66406 59.2905 10.0225 59.2905 10.4624V25.1963C59.2905 25.6362 58.9321 25.9941 58.4917 25.9941H58.2217C57.5449 25.9941 56.9341 26.3931 56.665 27.0112C56.3301 27.7803 55.5713 28.2773 54.7324 28.2773C53.894 28.2773 53.1362 27.7803 52.8008 27.0107C52.5317 26.3936 51.9209 25.9941 51.2441 25.9941H37.6729C37.2324 25.9941 36.874 25.6362 36.874 25.1963V24.1201H44.7646C46.4824 24.1201 47.8799 22.7227 47.8799 21.0054V9.66406V7.78906V3.11475C47.8804 1.39746 46.4824 0 44.7646 0H18.6602C16.9419 0 15.5444 1.39746 15.5444 3.11475V7.78906H5.57031C4.09619 7.78906 2.89648 8.98828 2.89648 10.4624V11.793V15.7412V25.1963C2.89648 26.6699 4.09619 27.8691 5.57031 27.8691ZM4.77148 10.4624V11.793V15.7412V25.1963C4.77148 25.6362 5.12988 25.9941 5.57031 25.9941H5.84033C6.51709 25.9941 7.12793 26.3936 7.39697 27.0107C7.73193 27.7803 8.49072 28.2773 9.32959 28.2773C10.1689 28.2773 10.9268 27.7803 11.2607 27.0117C11.5303 26.3931 12.1416 25.9941 12.8188 25.9941H26.3892C26.8296 25.9941 27.188 25.6362 27.188 25.1963V24.1201H18.6602C16.9419 24.1201 15.5444 22.7227 15.5444 21.0054V9.66406H5.57031C5.12988 9.66406 4.77148 10.0225 4.77148 10.4624ZM17.4194 3.11475V21.0054C17.4194 21.689 17.9761 22.2451 18.6602 22.2451H27.3374C28.0918 22.2451 28.7725 22.6895 29.0718 23.3774C29.5293 24.4287 30.5659 25.1079 31.7124 25.1079C32.8594 25.1079 33.896 24.4287 34.353 23.3774C34.6055 22.7974 35.1294 22.3916 35.7393 22.2783C35.748 22.2764 35.7573 22.2749 35.7661 22.2734C35.8711 22.2554 35.9785 22.2451 36.0874 22.2451H44.7646C45.4487 22.2451 46.0049 21.689 46.0049 21.0054V3.11475C46.0049 2.43115 45.4487 1.875 44.7646 1.875H18.6602C17.9761 1.875 17.4194 2.43115 17.4194 3.11475Z" fill="#519F72"/>
<path d="M21.3193 7.21924H41.5957C42.1133 7.21924 42.5332 6.7998 42.5332 6.28174C42.5332 5.76367 42.1133 5.34424 41.5957 5.34424H21.3193C20.8018 5.34424 20.3818 5.76367 20.3818 6.28174C20.3818 6.7998 20.8018 7.21924 21.3193 7.21924Z" fill="#519F72"/>
<path d="M21.3193 12.0361H41.5957C42.1133 12.0361 42.5332 11.6167 42.5332 11.0986C42.5332 10.5811 42.1133 10.1611 41.5957 10.1611H21.3193C20.8018 10.1611 20.3818 10.5811 20.3818 11.0986C20.3818 11.6167 20.8018 12.0361 21.3193 12.0361Z" fill="#519F72"/>
<path d="M33.1992 15.916C33.1992 15.3979 32.7793 14.9785 32.2617 14.9785H21.3193C20.8018 14.9785 20.3818 15.3979 20.3818 15.916C20.3818 16.4336 20.8018 16.8535 21.3193 16.8535H32.2617C32.7793 16.8535 33.1992 16.4336 33.1992 15.916Z" fill="#519F72"/>
</svg>
