<svg width="32" height="32" viewBox="0 0 32 32" fill="none" xmlns="http://www.w3.org/2000/svg">
<g clip-path="url(#clip0)">
<path d="M9.06641 18.1337H10.1331V19.2004H9.06641V18.1337Z" fill="#CACACA"/>
<path d="M11.2002 18.1332H12.2669V19.1998H11.2002V18.1332Z" fill="#CACACA"/>
<path d="M13.333 18.1332H14.3997V19.1998H13.333V18.1332Z" fill="#CACACA"/>
<path d="M9.06641 20.2666H10.1331V21.3333H9.06641V20.2666Z" fill="#CACACA"/>
<path d="M11.2002 20.2665H12.2669V21.3331H11.2002V20.2665Z" fill="#CACACA"/>
<path d="M13.333 20.2665H14.3997V21.3331H13.333V20.2665Z" fill="#CACACA"/>
<path d="M15.4668 20.2665H16.5335V21.3331H15.4668V20.2665Z" fill="#CACACA"/>
<path d="M17.5996 20.2665H18.6663V21.3331H17.5996V20.2665Z" fill="#CACACA"/>
<path d="M9.06641 22.4H10.1331V23.4667H9.06641V22.4Z" fill="#CACACA"/>
<path d="M11.2002 22.4001H12.2669V23.4668H11.2002V22.4001Z" fill="#CACACA"/>
<path d="M13.333 22.4001H14.3997V23.4668H13.333V22.4001Z" fill="#CACACA"/>
<path d="M15.4668 22.4001H16.5335V23.4668H15.4668V22.4001Z" fill="#CACACA"/>
<path d="M17.5996 22.4001H18.6663V23.4668H17.5996V22.4001Z" fill="#CACACA"/>
<path d="M9.06641 24.5336H10.1331V25.6002H9.06641V24.5336Z" fill="#CACACA"/>
<path d="M11.2002 24.5334H12.2669V25.6001H11.2002V24.5334Z" fill="#CACACA"/>
<path d="M13.333 24.5334H14.3997V25.6001H13.333V24.5334Z" fill="#CACACA"/>
<path d="M15.4668 24.5334H16.5335V25.6001H15.4668V24.5334Z" fill="#CACACA"/>
<path d="M17.5996 24.5334H18.6663V25.6001H17.5996V24.5334Z" fill="#CACACA"/>
<path d="M9.06641 26.6666H10.1331V27.7332H9.06641V26.6666Z" fill="#CACACA"/>
<path d="M11.2002 26.6666H12.2669V27.7332H11.2002V26.6666Z" fill="#CACACA"/>
<path d="M13.333 26.6666H14.3997V27.7332H13.333V26.6666Z" fill="#CACACA"/>
<path d="M15.4668 26.6666H16.5335V27.7332H15.4668V26.6666Z" fill="#CACACA"/>
<path d="M17.5996 26.6666H18.6663V27.7332H17.5996V26.6666Z" fill="#CACACA"/>
<path d="M9.06641 28.8003H10.1331V29.867H9.06641V28.8003Z" fill="#CACACA"/>
<path d="M11.2002 28.8003H12.2669V29.867H11.2002V28.8003Z" fill="#CACACA"/>
<path d="M13.333 28.8003H14.3997V29.867H13.333V28.8003Z" fill="#CACACA"/>
<path d="M15.4668 28.8003H16.5335V29.867H15.4668V28.8003Z" fill="#CACACA"/>
<path d="M17.5996 28.8003H18.6663V29.867H17.5996V28.8003Z" fill="#CACACA"/>
<path d="M31.4664 1.60072H27.7331V0.534062C27.7331 0.239533 27.4943 0.000732422 27.1998 0.000732422H21.8665C21.572 0.000732422 21.3332 0.239533 21.3332 0.534062V1.60072H0.533329C0.2388 1.60072 0 1.83952 0 2.13405V4.26737C0 4.56216 0.2388 4.8007 0.533329 4.8007H2.13332V14.934C2.13332 15.2287 2.37212 15.4673 2.66665 15.4673C2.96118 15.4673 3.19998 15.7061 3.19998 16.0006C3.19998 16.2954 2.96118 16.5339 2.66665 16.5339C2.37212 16.5339 2.13332 16.2954 2.13332 16.0006H1.06666C1.06822 16.391 1.21327 16.7673 1.47473 17.0574L0.10677 18.8808L0.113541 18.886C0.0421872 18.9756 0.00234373 19.0863 0 19.2006V21.3339C0 21.4756 0.0562496 21.611 0.156249 21.711L1.22291 22.7777C1.32291 22.8777 1.45858 22.9339 1.59999 22.9339H3.73331C3.87471 22.9339 4.01039 22.8777 4.11039 22.7777L5.17705 21.711C5.27704 21.611 5.33329 21.4756 5.33329 21.3339V19.2006C5.33095 19.0863 5.29111 18.9756 5.21975 18.886L5.22652 18.8808L3.85857 17.0574C4.21481 16.6616 4.34919 16.1136 4.21664 15.598C4.08434 15.0824 3.70258 14.6673 3.19998 14.492V4.8007H21.3332V5.33403C21.3332 5.62882 21.572 5.86736 21.8665 5.86736H22.9332V30.9338H20.7998V9.60066H19.7332V11.734H16.5332V10.6673H15.4666V11.734H12.2666V11.2007H11.1999V11.734H7.99994V10.134H14.9332V9.06734H7.99994V6.93402H6.93328V30.9338H6.08746L3.57706 28.4237C3.36873 28.2154 3.03123 28.2154 2.8229 28.4237L0.312498 30.9338H0V32.0005H31.9998V30.9338H31.5839C31.9591 30.5242 32.0925 29.9477 31.9352 29.4146C31.7782 28.8818 31.3534 28.4698 30.8157 28.3292C31.0868 27.6607 30.8774 26.8938 30.3039 26.456C29.7308 26.0183 28.9355 26.0183 28.3623 26.456C27.7889 26.8938 27.5795 27.6607 27.8506 28.3292C27.3128 28.4698 26.8881 28.8818 26.7311 29.4146C26.5738 29.9477 26.7071 30.5242 27.0824 30.9338H26.1331V5.86736H27.1998C27.4943 5.86736 27.7331 5.62882 27.7331 5.33403V4.8007H31.4664C31.761 4.8007 31.9998 4.56216 31.9998 4.26737V2.13405C31.9998 1.83952 31.761 1.60072 31.4664 1.60072ZM2.93331 17.6006L3.73331 18.6673H1.59999L2.39998 17.6006H2.93331ZM4.26664 21.1133L3.51247 21.8672H1.82082L1.06666 21.1133V19.7339H4.26664V21.1133ZM29.1732 2.66738L27.7331 3.62753V2.66738H29.1732ZM22.3998 1.06739H24.5332V3.20071H22.3998V1.06739ZM7.99994 2.77415L9.44003 3.73404H6.55985L7.99994 2.77415ZM4.79996 3.62753L3.35987 2.66738H6.24006L4.79996 3.62753ZM9.75982 2.66738H12.64L11.1999 3.62753L9.75982 2.66738ZM14.3999 2.77415L15.84 3.73404H12.9598L14.3999 2.77415ZM16.1598 2.66738H19.04L17.5999 3.62753L16.1598 2.66738ZM1.06666 2.66738H1.44009L3.04008 3.73404H1.06666V2.66738ZM19.3598 3.73404L20.9597 2.66738H21.3332V3.73404H19.3598ZM25.0665 29.174L24.1066 27.7339L25.0665 26.294V29.174ZM25.0665 16.3741L24.1066 14.934L25.0665 13.4941V16.3741ZM23.9998 16.6941L24.9597 18.1339L23.9998 19.574V16.6941ZM23.9998 13.1741V10.2941L24.9597 11.734L23.9998 13.1741ZM23.9998 23.0941L24.9597 24.5339L23.9998 25.974V23.0941ZM25.0665 22.7709L24.1066 21.3339L25.0665 19.8941V22.7709ZM24.1066 8.53401L25.0665 7.09417V9.9741L24.1066 8.53401ZM23.9998 6.77412V5.86736H24.6035L23.9998 6.77412ZM19.7332 12.8006V18.1339H16.5332V12.8006H19.7332ZM15.4666 12.8006V17.3873L14.24 16.1751C14.1405 16.0769 14.0064 16.0215 13.8666 16.0209H12.2666V12.8006H15.4666ZM11.1999 12.8006V13.6897H7.99994V12.8006H11.1999ZM3.19998 29.5547L4.57913 30.9338H1.82082L3.19998 29.5547ZM7.99994 30.9338V14.7564H11.1999V16.5563C11.1999 16.8511 11.4387 17.0897 11.7332 17.0897H13.6473L15.6264 19.0467C15.7259 19.1449 15.86 19.2003 15.9999 19.2006H19.7332V30.9338H7.99994ZM23.9998 29.494L24.9597 30.9338H23.9998V29.494ZM30.3998 30.4005C30.1052 30.4005 29.8664 30.162 29.8664 29.8672C29.8664 29.5727 30.1052 29.3339 30.3998 29.3339C30.6943 29.3339 30.9331 29.5727 30.9331 29.8672C30.9331 30.162 30.6943 30.4005 30.3998 30.4005ZM29.3331 27.2005C29.6276 27.2005 29.8664 27.4393 29.8664 27.7339C29.8664 28.0287 29.6276 28.2672 29.3331 28.2672C29.0386 28.2672 28.7998 28.0287 28.7998 27.7339C28.7998 27.4393 29.0386 27.2005 29.3331 27.2005ZM28.2665 29.3339C28.561 29.3339 28.7998 29.5727 28.7998 29.8672C28.7998 30.162 28.561 30.4005 28.2665 30.4005C27.9719 30.4005 27.7331 30.162 27.7331 29.8672C27.7331 29.5727 27.9719 29.3339 28.2665 29.3339ZM26.6665 4.8007H22.3998V4.26737H25.0665C25.361 4.26737 25.5998 4.02883 25.5998 3.73404V1.06739H26.6665V4.8007ZM29.493 3.73404L30.9331 2.77415V3.73404H29.493Z" fill="#CACACA"/>
</g>
<defs>
<clipPath id="clip0">
<rect width="32" height="32" fill="white"/>
</clipPath>
</defs>
</svg>
