<svg width="33" height="32" viewBox="0 0 33 32" fill="none" xmlns="http://www.w3.org/2000/svg">
<path fill-rule="evenodd" clip-rule="evenodd" d="M27.9546 31.9998H28.2683H29.9546V6.99977C29.9562 6.73396 29.8518 6.47846 29.6646 6.28977L23.6646 0.289772C23.4759 0.102584 23.2204 -0.00172818 22.9546 -0.000228184H6.95459C5.29772 -0.000228184 3.95459 1.34296 3.95459 2.99977V28.9998C3.95459 30.6566 5.29772 31.9998 6.95459 31.9998H27.9546ZM5.95459 28.9998V2.99977C5.95459 2.44746 6.40228 1.99977 6.95459 1.99977H21.9546L27.9546 7.99977V29.9998H6.95459C6.40234 29.9998 5.95459 29.5521 5.95459 28.9998Z" fill="#17B7BB"/>
<path d="M23.2731 15.91L17.8373 22.1695C17.3499 22.6588 16.5597 22.6588 16.0723 22.1695L10.6365 15.91C10.1491 15.4207 10.1491 14.6274 10.6365 14.1381C11.1239 13.6488 11.9141 13.6488 12.4015 14.1381L15.7068 18.2589L15.7068 5.37173C15.7068 4.68247 16.2656 4.12372 16.9548 4.12372C17.6441 4.12372 18.2028 4.68247 18.2028 5.37173L18.2028 18.2589L21.5082 14.1381C21.9956 13.6488 22.7858 13.6488 23.2731 14.1381C23.7605 14.6274 23.7605 15.4207 23.2731 15.91Z" fill="#17B7BB"/>
<rect x="8.03369" y="24.0422" width="17.89" height="2.63622" rx="1.31811" fill="#17B7BB"/>
</svg>
