<svg width="33" height="33" viewBox="0 0 33 33" fill="none" xmlns="http://www.w3.org/2000/svg">
<path fill-rule="evenodd" clip-rule="evenodd" d="M27.333 32.4998H27.6467H29.333V7.49977C29.3346 7.23396 29.2302 6.97846 29.043 6.78977L23.043 0.789772C22.8543 0.602584 22.5988 0.498272 22.333 0.499772H6.33301C4.67613 0.499772 3.33301 1.84296 3.33301 3.49977V29.4998C3.33301 31.1566 4.67613 32.4998 6.33301 32.4998H27.333ZM5.33301 29.4998V3.49977C5.33301 2.94746 5.7807 2.49977 6.33301 2.49977H21.333L27.333 8.49977V30.4998H6.33301C5.78076 30.4998 5.33301 30.0521 5.33301 29.4998Z" fill="#FF4242"/>
<path d="M22.6516 16.41L17.2157 22.6695C16.7283 23.1588 15.9381 23.1588 15.4508 22.6695L10.0149 16.41C9.52754 15.9207 9.52754 15.1274 10.0149 14.6381C10.5023 14.1488 11.2925 14.1488 11.7799 14.6381L15.0852 18.7589L15.0852 5.87173C15.0852 5.18247 15.644 4.62372 16.3332 4.62372C17.0225 4.62372 17.5812 5.18247 17.5812 5.87173L17.5812 18.7589L20.8866 14.6381C21.374 14.1488 22.1642 14.1488 22.6516 14.6381C23.1389 15.1274 23.1389 15.9207 22.6516 16.41Z" fill="#FF4242"/>
<rect x="7.41211" y="24.5422" width="17.89" height="2.63622" rx="1.31811" fill="#FF4242"/>
</svg>
