<svg width="32" height="33" viewBox="0 0 32 33" fill="none" xmlns="http://www.w3.org/2000/svg">
<path fill-rule="evenodd" clip-rule="evenodd" d="M27 32.4998H27.3137H29V7.49977C29.0016 7.23396 28.8972 6.97846 28.71 6.78977L22.71 0.789772C22.5213 0.602584 22.2658 0.498272 22 0.499772H6C4.34313 0.499772 3 1.84296 3 3.49977V29.4998C3 31.1566 4.34313 32.4998 6 32.4998H27ZM5 29.4998V3.49977C5 2.94746 5.44769 2.49977 6 2.49977H21L27 8.49977V30.4998H6C5.44775 30.4998 5 30.0521 5 29.4998Z" fill="#519F72"/>
<path d="M22.3185 16.41L16.8827 22.6695C16.3953 23.1588 15.6051 23.1588 15.1178 22.6695L9.68191 16.41C9.19454 15.9207 9.19454 15.1274 9.68191 14.6381C10.1693 14.1488 10.9595 14.1488 11.4469 14.6381L14.7522 18.7589L14.7522 5.87173C14.7522 5.18247 15.311 4.62372 16.0002 4.62372C16.6895 4.62372 17.2482 5.18247 17.2482 5.87173L17.2482 18.7589L20.5536 14.6381C21.041 14.1488 21.8312 14.1488 22.3185 14.6381C22.8059 15.1274 22.8059 15.9207 22.3185 16.41Z" fill="#519F72"/>
<rect x="7.0791" y="24.5422" width="17.89" height="2.63622" rx="1.31811" fill="#519F72"/>
</svg>
