<svg width="33" height="33" viewBox="0 0 33 33" fill="none" xmlns="http://www.w3.org/2000/svg">
<path fill-rule="evenodd" clip-rule="evenodd" d="M27.6665 32.4998H27.9802H29.6665V7.49977C29.6681 7.23396 29.5637 6.97846 29.3765 6.78977L23.3765 0.789772C23.1878 0.602584 22.9323 0.498272 22.6665 0.499772H6.6665C5.00963 0.499772 3.6665 1.84296 3.6665 3.49977V29.4998C3.6665 31.1566 5.00963 32.4998 6.6665 32.4998H27.6665ZM5.6665 29.4998V3.49977C5.6665 2.94746 6.11419 2.49977 6.6665 2.49977H21.6665L27.6665 8.49977V30.4998H6.6665C6.11425 30.4998 5.6665 30.0521 5.6665 29.4998Z" fill="#727272"/>
<path d="M22.9851 16.41L17.5492 22.6695C17.0618 23.1588 16.2716 23.1588 15.7843 22.6695L10.3484 16.41C9.86104 15.9207 9.86104 15.1274 10.3484 14.6381C10.8358 14.1488 11.626 14.1488 12.1134 14.6381L15.4187 18.7589L15.4187 5.87173C15.4187 5.18247 15.9775 4.62372 16.6667 4.62372C17.356 4.62372 17.9147 5.18247 17.9147 5.87173L17.9147 18.7589L21.2201 14.6381C21.7075 14.1488 22.4977 14.1488 22.9851 14.6381C23.4724 15.1274 23.4724 15.9207 22.9851 16.41Z" fill="#727272"/>
<rect x="7.74561" y="24.5422" width="17.89" height="2.63622" rx="1.31811" fill="#727272"/>
</svg>
