<svg width="32" height="33" viewBox="0 0 32 33" fill="none" xmlns="http://www.w3.org/2000/svg">
<path fill-rule="evenodd" clip-rule="evenodd" d="M26.9995 32.4998H27.3132H28.9995V7.49977C29.0011 7.23396 28.8967 6.97846 28.7095 6.78977L22.7095 0.789772C22.5208 0.602584 22.2653 0.498272 21.9995 0.499772H5.99951C4.34264 0.499772 2.99951 1.84296 2.99951 3.49977V29.4998C2.99951 31.1566 4.34264 32.4998 5.99951 32.4998H26.9995ZM4.99951 29.4998V3.49977C4.99951 2.94746 5.4472 2.49977 5.99951 2.49977H20.9995L26.9995 8.49977V30.4998H5.99951C5.44726 30.4998 4.99951 30.0521 4.99951 29.4998Z" fill="#01F7F7"/>
<path d="M22.3181 16.41L16.8822 22.6695C16.3948 23.1588 15.6046 23.1588 15.1173 22.6695L9.68143 16.41C9.19405 15.9207 9.19405 15.1274 9.68143 14.6381C10.1688 14.1488 10.959 14.1488 11.4464 14.6381L14.7517 18.7589L14.7517 5.87173C14.7517 5.18247 15.3105 4.62372 15.9997 4.62372C16.689 4.62372 17.2477 5.18247 17.2477 5.87173L17.2478 18.7589L20.5531 14.6381C21.0405 14.1488 21.8307 14.1488 22.3181 14.6381C22.8054 15.1274 22.8054 15.9207 22.3181 16.41Z" fill="#01F7F7"/>
<rect x="7.07861" y="24.5422" width="17.89" height="2.63622" rx="1.31811" fill="#01F7F7"/>
</svg>
