<svg width="16" height="16" viewBox="0 0 16 16" fill="none" xmlns="http://www.w3.org/2000/svg">
<g clip-path="url(#clip0)">
<path d="M15.8137 7.42164C15.5708 7.0293 15.1411 6.79517 14.6643 6.79517H13.4741V4.61194C13.4741 4.08496 13.0295 3.65637 12.4832 3.65637H6.65686C6.64832 3.65637 6.64258 3.65393 6.64026 3.65247L5.59753 2.19409C5.4126 1.93555 5.10767 1.78125 4.78174 1.78125H0.990967C0.444458 1.78125 0 2.20996 0 2.73682V13.2102C0 13.7495 0.455322 14.1884 1.01514 14.1884H12.8077C12.9915 14.1884 13.1501 14.0823 13.2269 13.9284L15.8699 8.62098C16.0615 8.23633 16.0404 7.78797 15.8137 7.42164ZM0.990967 2.71875H4.78174C4.80981 2.71875 4.82886 2.73108 4.83484 2.7395L5.87915 4.19995C6.05542 4.44654 6.34619 4.59387 6.65686 4.59387H12.4832C12.5159 4.59387 12.5325 4.60926 12.5366 4.61475V6.79517H4.0531C3.52698 6.79517 3.04846 7.09168 2.83398 7.55066L0.9375 11.6091V2.73962C0.94165 2.73413 0.958252 2.71875 0.990967 2.71875ZM15.0306 8.20313L12.5175 13.2507H1.2052L3.68335 7.94764C3.74341 7.8191 3.89209 7.73267 4.0531 7.73267H14.6643C14.8141 7.73267 14.9458 7.80091 15.0166 7.91517C15.0564 7.9795 15.0911 8.08167 15.0306 8.20313Z" fill="#939393"/>
<path d="M15.0306 8.20313L12.5175 13.2507H1.2052L3.68335 7.94764C3.74341 7.8191 3.89209 7.73267 4.0531 7.73267H14.6643C14.8141 7.73267 14.9458 7.80091 15.0166 7.91517C15.0564 7.9795 15.0911 8.08167 15.0306 8.20313Z" fill="#939393"/>
<path d="M0.990967 2.71875H4.78174C4.80981 2.71875 4.82886 2.73108 4.83484 2.7395L5.87915 4.19995C6.05542 4.44654 6.34619 4.59387 6.65686 4.59387H12.4832C12.5159 4.59387 12.5325 4.60926 12.5366 4.61475V6.79517H4.0531C3.52698 6.79517 3.04846 7.09168 2.83398 7.55066L0.9375 11.6091V2.73962C0.94165 2.73413 0.958252 2.71875 0.990967 2.71875Z" fill="#939393"/>
<path d="M0.990967 2.71875H4.78174C4.80981 2.71875 4.82886 2.73108 4.83484 2.7395L5.87915 4.19995C6.05542 4.44653 6.34619 4.59387 6.65686 4.59387H12.4832C12.5159 4.59387 12.5325 4.60925 12.5366 4.61475V6.79517H4.0531C3.52698 6.79517 3.04846 7.09168 2.83398 7.55066L0.9375 11.6091V2.73962C0.94165 2.73413 0.958252 2.71875 0.990967 2.71875Z" fill="#CACACA"/>
<path d="M15.0305 8.20313L12.5173 13.2507H1.20508L3.68323 7.94763C3.74329 7.81909 3.89197 7.73267 4.05298 7.73267H14.6642C14.814 7.73267 14.9457 7.8009 15.0165 7.91516C15.0563 7.97949 15.0909 8.08167 15.0305 8.20313Z" fill="#CACACA"/>
</g>
<defs>
<clipPath id="clip0">
<rect width="16" height="16" fill="white"/>
</clipPath>
</defs>
</svg>
