<svg width="24" height="24" viewBox="0 0 24 24" fill="none" xmlns="http://www.w3.org/2000/svg">
<path d="M9.90732 14.2919L7.66371 8.90909H5.92791V16H7.28054V10.8434L9.39489 16H10.4197L12.571 10.8619V16H13.9144V8.90909H12.1971L9.90732 14.2919ZM15.4725 11.2727H19.7381V10.4602H16.9128V10.4233L18.1131 9.37074C19.1287 8.48438 19.5719 7.96733 19.5719 7.21023C19.5719 6.25 18.7409 5.52983 17.5222 5.52983C16.3034 5.52983 15.4355 6.23153 15.4355 7.28409H16.3958C16.3958 6.71165 16.839 6.32386 17.5037 6.32386C18.1316 6.32386 18.6117 6.67472 18.6117 7.22869C18.6117 7.70881 18.2793 8.05966 17.633 8.6321L15.4725 10.5526V11.2727Z" fill="#939393"/>
<path fill-rule="evenodd" clip-rule="evenodd" d="M20 1H4C2.34315 1 1 2.34315 1 4V20C1 21.6569 2.34315 23 4 23H20C21.6569 23 23 21.6569 23 20V4C23 2.34315 21.6569 1 20 1ZM4 0C1.79086 0 0 1.79086 0 4V20C0 22.2091 1.79086 24 4 24H20C22.2091 24 24 22.2091 24 20V4C24 1.79086 22.2091 0 20 0H4Z" fill="#939393"/>
</svg>
