<svg width="24" height="24" viewBox="0 0 24 24" fill="none" xmlns="http://www.w3.org/2000/svg">
<path d="M23.2969 12.7031C23.6852 12.7031 24 12.3883 24 12V6.75C24 6.36169 23.6852 6.04688 23.2969 6.04688C22.8067 6.04688 13.2314 6.04688 12.7031 6.04688V1.5C12.7031 1.11169 12.3883 0.796875 12 0.796875H4.5C4.11169 0.796875 3.79688 1.11169 3.79688 1.5V6.04688H0.703125C0.314812 6.04688 0 6.36169 0 6.75V12C0 12.3883 0.314812 12.7031 0.703125 12.7031H3.79688V16.5469H0.703125C0.314812 16.5469 0 16.8617 0 17.25V22.5C0 22.8883 0.314812 23.2031 0.703125 23.2031H23.2969C23.6852 23.2031 24 22.8883 24 22.5V17.25C24 16.8617 23.6852 16.5469 23.2969 16.5469H20.2031V12.7031H23.2969ZM22.5938 11.2969C21.8415 11.2969 17.1968 11.2969 16.4531 11.2969V7.45312H22.5938V11.2969ZM15.0469 11.2969C14.3104 11.2969 9.69445 11.2969 8.95312 11.2969V7.45312H15.0469V11.2969ZM5.20312 2.20312H11.2969V6.04688C10.5604 6.04688 5.94445 6.04688 5.20312 6.04688V2.20312ZM1.40625 11.2969V7.45312H7.54688V11.2969C6.80288 11.2969 2.15836 11.2969 1.40625 11.2969ZM5.20312 12.7031H11.2969V16.5469C10.5604 16.5469 5.94445 16.5469 5.20312 16.5469V12.7031ZM1.40625 17.9531H7.54688V21.7969H1.40625V17.9531ZM8.95312 17.9531H15.0469V21.7969H8.95312V17.9531ZM22.5938 17.9531V21.7969H16.4531V17.9531H22.5938ZM18.7969 16.5469C18.0604 16.5469 13.4445 16.5469 12.7031 16.5469V12.7031H18.7969V16.5469Z" fill="#939393"/>
</svg>
