<svg width="24" height="24" viewBox="0 0 24 24" fill="none" xmlns="http://www.w3.org/2000/svg">
<g clip-path="url(#clip0)">
<path d="M22.618 17.2766V17.2385C22.618 14.3963 21.7716 11.6203 20.2348 9.42232C18.8406 7.42831 16.9366 5.9848 14.827 5.30823V4H9.21507V5.30823C7.1054 5.9848 5.20135 7.42831 3.80721 9.42232C2.27037 11.6204 1.424 14.3962 1.424 17.2385V17.2766C0.602476 17.6641 0.0209961 18.6041 0.0209961 19.7002V22H24.021V19.7002C24.021 18.6041 23.4395 17.664 22.618 17.2766ZM4.89415 10.4577C5.37223 9.77395 5.91952 9.16508 6.51917 8.64205V12.4934H7.92209V7.63184C8.33856 7.38885 8.7709 7.18291 9.21507 7.01639V13.5235H10.618V5.63761H13.4241V13.5236H14.827V7.01633C15.2809 7.18648 15.7225 7.39756 16.1473 7.64746V12.4934H17.5502V8.66595C18.1392 9.18366 18.6771 9.78425 19.148 10.4576C20.4537 12.3252 21.1844 14.674 21.2138 17.087H2.82833C2.85772 14.674 3.58839 12.3252 4.89415 10.4577ZM22.6181 20.3624H22.6181H1.42391V19.7002C1.42391 19.1623 1.79887 18.7246 2.25971 18.7246H21.7823C22.2432 18.7246 22.6181 19.1623 22.6181 19.7002V20.3624Z" fill="#939393"/>
</g>
<defs>
<clipPath id="clip0">
<rect width="24" height="24" fill="white"/>
</clipPath>
</defs>
</svg>
