<svg width="24" height="24" viewBox="0 0 24 24" fill="none" xmlns="http://www.w3.org/2000/svg">
<path d="M9.90732 14.2919L7.66371 8.90909H5.92791V16H7.28054V10.8434L9.39489 16H10.4197L12.571 10.8619V16H13.9144V8.90909H12.1971L9.90732 14.2919ZM15.4725 11.2727H19.7381V10.4602H16.9128V10.4233L18.1131 9.37074C19.1287 8.48438 19.5719 7.96733 19.5719 7.21023C19.5719 6.25 18.7409 5.52983 17.5222 5.52983C16.3034 5.52983 15.4355 6.23153 15.4355 7.28409H16.3958C16.3958 6.71165 16.839 6.32386 17.5037 6.32386C18.1316 6.32386 18.6117 6.67472 18.6117 7.22869C18.6117 7.70881 18.2793 8.05966 17.633 8.6321L15.4725 10.5526V11.2727Z" fill="#939393"/>
<path fill-rule="evenodd" clip-rule="evenodd" d="M0.5 0C0.776142 0 1 0.223858 1 0.5V18.5C1 20.433 2.567 22 4.5 22H23.5C23.7761 22 24 22.2239 24 22.5C24 22.7761 23.7761 23 23.5 23H4.5C2.01472 23 0 20.9853 0 18.5V0.5C0 0.223858 0.223858 0 0.5 0Z" fill="#939393"/>
</svg>
