<svg width="24" height="24" viewBox="0 0 24 24" fill="none" xmlns="http://www.w3.org/2000/svg">
<path d="M3.75 21.7499V2.24989C3.75 1.83566 4.08577 1.49989 4.5 1.49989H15.75V4.49989C15.75 5.32831 16.4216 5.99989 17.25 5.99989H20.25V8.24989H21.75V5.24989C21.7512 5.05053 21.6729 4.8589 21.5325 4.71739L17.0325 0.21739C16.891 0.0769992 16.6994 -0.0012351 16.5 -0.000110103H4.5C3.25734 -0.000110103 2.25 1.00728 2.25 2.24989V21.7499C2.25 22.9925 3.25734 23.9999 4.5 23.9999H13.5V22.4999H4.5C4.08581 22.4999 3.75 22.1641 3.75 21.7499Z" fill="#939393"/>
<path fill-rule="evenodd" clip-rule="evenodd" d="M23.1791 11.9739C23.6077 12.349 23.6511 13.0005 23.2761 13.4291L18.0261 19.4291C17.8381 19.6439 17.5696 19.7712 17.2843 19.7807C16.9991 19.7902 16.7226 19.681 16.5208 19.4792L13.5208 16.4792C13.1181 16.0765 13.1181 15.4235 13.5208 15.0208C13.9235 14.6181 14.5765 14.6181 14.9792 15.0208L17.1998 17.2414L21.7239 12.0709C22.099 11.6423 22.7505 11.5989 23.1791 11.9739Z" fill="#80CBA3"/>
<path d="M5.25 8.25C5.25 7.83579 5.58579 7.5 6 7.5H13.5C13.9142 7.5 14.25 7.83579 14.25 8.25C14.25 8.66421 13.9142 9 13.5 9H6C5.58579 9 5.25 8.66421 5.25 8.25Z" fill="#939393"/>
<path d="M5.25 11.25C5.25 10.8358 5.58579 10.5 6 10.5H9.8752C10.2894 10.5 10.6252 10.8358 10.6252 11.25C10.6252 11.6642 10.2894 12 9.8752 12H6C5.58579 12 5.25 11.6642 5.25 11.25Z" fill="#939393"/>
</svg>
