<svg width="112" height="56" viewBox="0 0 112 56" fill="none" xmlns="http://www.w3.org/2000/svg">
<path d="M2 28.9998V2.99977C2 2.44746 2.44769 1.99977 3 1.99977H18V5.99977C18 7.10433 18.8954 7.99977 20 7.99977H24V10.9998H26V6.99977C26.0016 6.73396 25.8972 6.47846 25.71 6.28977L19.71 0.289772C19.5213 0.102584 19.2658 -0.00172818 19 -0.000228184H3C1.34313 -0.000228184 0 1.34296 0 2.99977V28.9998C0 30.6566 1.34313 31.9998 3 31.9998H10V29.9998H3C2.44775 29.9998 2 29.5521 2 28.9998Z" fill="#CACACA"/>
<path d="M30 20H28V22H30V24H26V18H32C32 16.8954 31.1046 16 30 16H26C24.8954 16 24 16.8954 24 18V24C24 25.1046 24.8954 26 26 26H30C31.1046 26 32 25.1046 32 24V22C32 20.8954 31.1046 20 30 20Z" fill="#CACACA"/>
<path d="M21 16H17C16.4477 16 16 16.4477 16 17V26H18V23H21C22.1046 23 23 22.1046 23 21V18C23 16.8954 22.1046 16 21 16ZM21 21H18V18H21V21Z" fill="#CACACA"/>
<path d="M13 24H9V26H13C14.1046 26 15 25.1046 15 24V16H13V24Z" fill="#CACACA"/>
<path d="M1.05682 52H2.11364V48.0966H5.89773V47.1591H2.11364V44.2102H6.28977V43.2727H1.05682V52ZM7.96342 52H8.96911V45.4545H7.96342V52ZM8.47479 44.3636C8.86683 44.3636 9.1907 44.0568 9.1907 43.6818C9.1907 43.3068 8.86683 43 8.47479 43C8.08274 43 7.75888 43.3068 7.75888 43.6818C7.75888 44.0568 8.08274 44.3636 8.47479 44.3636ZM11.8168 43.2727H10.8111V52H11.8168V43.2727ZM16.4031 52.1364C17.7326 52.1364 18.7042 51.4716 19.011 50.483L18.0394 50.2102C17.7837 50.892 17.1914 51.233 16.4031 51.233C15.2227 51.233 14.4087 50.4702 14.3619 49.0682H19.1133V48.642C19.1133 46.2045 17.6644 45.3693 16.3008 45.3693C14.5281 45.3693 13.3519 46.767 13.3519 48.7784C13.3519 50.7898 14.511 52.1364 16.4031 52.1364ZM14.3619 48.1989C14.43 47.1804 15.1502 46.2727 16.3008 46.2727C17.3917 46.2727 18.0906 47.0909 18.0906 48.1989H14.3619ZM27.6999 43.2727H26.6602V50.142H26.5749L21.8022 43.2727H20.7795V52H21.8363V45.1477H21.9215L26.6772 52H27.6999V43.2727ZM31.6044 52.1534C32.7464 52.1534 33.343 51.5398 33.5476 51.1136H33.5987V52H34.6044V47.6875C34.6044 45.608 33.0192 45.3693 32.1839 45.3693C31.1953 45.3693 30.0703 45.7102 29.5589 46.9034L30.5135 47.2443C30.7351 46.767 31.2592 46.2557 32.218 46.2557C33.1428 46.2557 33.5987 46.7457 33.5987 47.5852V47.6193C33.5987 48.1051 33.1044 48.0625 31.9112 48.2159C30.6967 48.3736 29.3714 48.642 29.3714 50.142C29.3714 51.4205 30.3601 52.1534 31.6044 52.1534ZM31.7578 51.25C30.9567 51.25 30.3771 50.892 30.3771 50.1932C30.3771 49.4261 31.076 49.1875 31.8601 49.0852C32.2862 49.0341 33.4283 48.9148 33.5987 48.7102V49.6307C33.5987 50.4489 32.951 51.25 31.7578 51.25ZM36.44 52H37.4457V47.9091C37.4457 46.9503 38.1445 46.2727 38.9286 46.2727C39.6914 46.2727 40.2241 46.7713 40.2241 47.517V52H41.2468V47.7386C41.2468 46.8949 41.7752 46.2727 42.6957 46.2727C43.4116 46.2727 44.0252 46.652 44.0252 47.6193V52H45.0309V47.6193C45.0309 46.081 44.2042 45.3693 43.0366 45.3693C42.0991 45.3693 41.413 45.7997 41.0763 46.4773H41.0082C40.6843 45.7784 40.1133 45.3693 39.2525 45.3693C38.4002 45.3693 37.7695 45.7784 37.4968 46.4773H37.4116V45.4545H36.44V52ZM49.614 52.1364C50.9435 52.1364 51.9151 51.4716 52.2219 50.483L51.2504 50.2102C50.9947 50.892 50.4023 51.233 49.614 51.233C48.4336 51.233 47.6197 50.4702 47.5728 49.0682H52.3242V48.642C52.3242 46.2045 50.8754 45.3693 49.5117 45.3693C47.739 45.3693 46.5629 46.767 46.5629 48.7784C46.5629 50.7898 47.7219 52.1364 49.614 52.1364ZM47.5728 48.1989C47.641 47.1804 48.3612 46.2727 49.5117 46.2727C50.6026 46.2727 51.3015 47.0909 51.3015 48.1989H47.5728ZM54.587 52.0682C55.0089 52.0682 55.354 51.723 55.354 51.3011C55.354 50.8793 55.0089 50.5341 54.587 50.5341C54.1651 50.5341 53.82 50.8793 53.82 51.3011C53.82 51.723 54.1651 52.0682 54.587 52.0682ZM57.1587 45.4545V52.4773C57.1587 53.142 56.886 53.517 56.2724 53.517H56.0849V54.4545H56.2894C57.5508 54.4545 58.1644 53.6875 58.1644 52.4773V45.4545H57.1587ZM57.6531 44.3636C58.0451 44.3636 58.369 44.0568 58.369 43.6818C58.369 43.3068 58.0451 43 57.6531 43C57.261 43 56.9371 43.3068 56.9371 43.6818C56.9371 44.0568 57.261 44.3636 57.6531 44.3636ZM60.0064 54.4545H61.0121V50.9943H61.0973C61.3189 51.3523 61.745 52.1364 63.0064 52.1364C64.6428 52.1364 65.7848 50.8239 65.7848 48.7443C65.7848 46.6818 64.6428 45.3693 62.9893 45.3693C61.7109 45.3693 61.3189 46.1534 61.0973 46.4943H60.978V45.4545H60.0064V54.4545ZM60.995 48.7273C60.995 47.2614 61.6428 46.2727 62.87 46.2727C64.1484 46.2727 64.7791 47.3466 64.7791 48.7273C64.7791 50.125 64.1314 51.233 62.87 51.233C61.6598 51.233 60.995 50.2102 60.995 48.7273ZM69.9609 54.5909C71.5291 54.5909 72.7905 53.875 72.7905 52.1875V45.4545H71.8189V46.4943H71.7166C71.495 46.1534 71.0859 45.3693 69.8075 45.3693C68.1541 45.3693 67.0121 46.6818 67.0121 48.6932C67.0121 50.7386 68.2053 51.8977 69.7905 51.8977C71.0689 51.8977 71.478 51.1477 71.6996 50.7898H71.7848V52.1193C71.7848 53.2102 71.0178 53.7045 69.9609 53.7045C68.772 53.7045 68.3544 53.0781 68.0859 52.7159L67.2848 53.2784C67.6939 53.9645 68.4993 54.5909 69.9609 54.5909ZM69.9268 50.9943C68.6655 50.9943 68.0178 50.0398 68.0178 48.6761C68.0178 47.3466 68.6484 46.2727 69.9268 46.2727C71.1541 46.2727 71.8018 47.2614 71.8018 48.6761C71.8018 50.125 71.1371 50.9943 69.9268 50.9943Z" fill="#939393"/>
</svg>
