<svg width="247" height="38" viewBox="0 0 247 38" fill="none" xmlns="http://www.w3.org/2000/svg">
<g clip-path="url(#clip0)">
<path fill-rule="evenodd" clip-rule="evenodd" d="M75.24 0H79.04V3.8H82.84V1.52H88.16V5.32H90.44V36.48H92.72V3.8H95.76V1.52H101.84V3.8H103.36V13.68H104.88V25.08H107.92V36.48H119.32V38H106.4V26.6H103.36V15.2H101.84V5.32H100.32V3.04H97.28V5.32H94.24V38H88.92V6.84H86.64V3.04H84.36V5.32H77.52V1.52H76.76V5.32H72.96V38H67.64V10.64H57.76V38H52.44V12.92H44.84V9.88H39.52V38H35.72V22.8H32.68V19H25.84V24.32H21.28V38H15.2V26.6H11.4V38H0V36.48H9.88V25.08H16.72V36.48H19.76V22.8H24.32V17.48H34.2V21.28H37.24V36.48H38V8.36H46.36V11.4H53.96V36.48H56.24V9.12H69.16V36.48H71.44V3.8H75.24V0Z" fill="white"/>
<path d="M138.532 1.83622H138.679C139.427 1.83622 140.106 2.0054 140.716 2.3439C141.331 2.67785 141.807 3.14996 142.146 3.75994C142.489 4.37006 142.66 5.05589 142.66 5.81726C142.66 6.57437 142.489 7.25563 142.146 7.86135C141.807 8.46251 141.335 8.93006 140.73 9.26401C140.128 9.5981 139.454 9.76728 138.706 9.77169H138.532V11.0409H136.909V9.77169H136.749C135.996 9.77169 135.313 9.60464 134.698 9.2707C134.083 8.93234 133.607 8.46251 133.269 7.86135C132.934 7.26019 132.768 6.58334 132.768 5.83063C132.768 5.06926 132.937 4.38344 133.275 3.77331C133.614 3.16334 134.088 2.68894 134.698 2.35059C135.308 2.00768 135.992 1.83622 136.749 1.83622H136.909V0.513672H138.532V1.83622ZM136.749 3.19221C136 3.19221 135.415 3.42599 134.992 3.89354C134.573 4.36109 134.364 5.00679 134.364 5.83063C134.364 6.63228 134.573 7.2646 134.992 7.72774C135.41 8.18633 136.003 8.4157 136.769 8.4157H136.909V3.19221H136.749ZM138.532 3.19221V8.4157H138.692C139.441 8.4157 140.022 8.18192 140.436 7.71437C140.854 7.24681 141.064 6.6145 141.064 5.81726C141.064 5.00238 140.854 4.36109 140.436 3.89354C140.022 3.42599 139.434 3.19221 138.672 3.19221H138.532Z" fill="white"/>
<path d="M152.849 6.03112C152.849 6.984 152.683 7.82122 152.355 8.54261C152.025 9.2596 151.552 9.81181 150.938 10.1993C150.329 10.5821 149.625 10.7737 148.827 10.7737C148.04 10.7737 147.335 10.5821 146.716 10.1993C146.102 9.81181 145.625 9.26188 145.287 8.5493C144.953 7.83688 144.784 7.01516 144.779 6.08447V5.53681C144.779 4.58833 144.946 3.75112 145.28 3.02516C145.619 2.29936 146.093 1.74487 146.703 1.36198C147.318 0.974532 148.021 0.780884 148.813 0.780884C149.607 0.780884 150.307 0.972252 150.918 1.35529C151.533 1.73377 152.007 2.28158 152.341 2.99856C152.674 3.71099 152.844 4.54152 152.849 5.49V6.03112ZM151.159 5.52344C151.159 4.44576 150.953 3.61964 150.545 3.04523C150.139 2.47082 149.563 2.18354 148.813 2.18354C148.084 2.18354 147.511 2.47082 147.097 3.04523C146.688 3.61523 146.478 4.42357 146.469 5.46993V6.03112C146.469 7.09983 146.676 7.92595 147.09 8.50917C147.509 9.09255 148.088 9.38424 148.827 9.38424C149.575 9.38424 150.149 9.09924 150.551 8.52924C150.956 7.95924 151.159 7.12658 151.159 6.03112V5.52344Z" fill="white"/>
<path d="M163.212 10.64H161.529V6.31818H157.18V10.64H155.49V0.914429H157.18V4.96219H161.529V0.914429H163.212V10.64Z" fill="white"/>
<path d="M175.265 13.0313H173.662V10.64H167.255V13.0313H165.625L165.572 9.29069H166.354C166.741 8.91662 167.051 8.37337 167.282 7.6608C167.513 6.94397 167.664 6.1335 167.729 5.22941L167.983 0.914429H174.116V9.29069H175.352L175.265 13.0313ZM168.264 9.29069H172.432V2.27696H169.594L169.433 5.01569C169.313 6.84592 168.924 8.27093 168.264 9.29069Z" fill="white"/>
<path d="M186.805 3.56619C186.805 3.1298 186.641 2.78248 186.311 2.52408C185.982 2.26583 185.535 2.13678 184.969 2.13678C184.483 2.13678 184.079 2.26583 183.753 2.52408C183.428 2.77792 183.265 3.10745 183.265 3.51268H181.583C181.583 2.98281 181.729 2.51085 182.024 2.09665C182.317 1.68245 182.724 1.36188 183.246 1.1348C183.767 0.903148 184.34 0.787476 184.969 0.787476C186.082 0.787476 186.945 1.03007 187.561 1.51556C188.18 2.00089 188.488 2.68003 188.488 3.55281C188.488 3.99361 188.356 4.39884 188.088 4.76851C187.821 5.13817 187.447 5.42986 186.967 5.64357C187.509 5.83053 187.923 6.11553 188.208 6.49857C188.497 6.87705 188.643 7.34916 188.643 7.91461C188.643 8.78739 188.309 9.48218 187.64 9.99868C186.973 10.5108 186.082 10.7669 184.969 10.7669C184.282 10.7669 183.662 10.6444 183.104 10.3995C182.553 10.1546 182.136 9.82053 181.856 9.39752C181.58 8.9745 181.441 8.48916 181.441 7.94136H183.126C183.126 8.35996 183.299 8.71397 183.645 9.00338C183.993 9.28838 184.434 9.43095 184.969 9.43095C185.565 9.43095 186.044 9.29066 186.404 9.01007C186.771 8.72963 186.953 8.36437 186.953 7.91461C186.953 7.36695 186.792 6.97053 186.471 6.72566C186.155 6.47623 185.69 6.35159 185.076 6.35159H183.933V5.01566H185.015C186.208 5.01566 186.805 4.53245 186.805 3.56619Z" fill="white"/>
<path d="M196.613 8.37565H192.845L192.058 10.64H190.301L193.975 0.914429H195.492L199.171 10.64H197.408L196.613 8.37565ZM193.32 7.01297H196.139L194.73 2.97844L193.32 7.01297Z" fill="white"/>
<path d="M202.962 0.914429V9.29069H205.927V0.914429H207.612V9.29069H210.557V0.914429H212.24V9.3442H213.375L213.242 12.9779H211.76V10.64H201.266V0.914429H202.962Z" fill="white"/>
<path d="M221.794 0.914429H223.485V10.64H221.794V3.7132L217.526 10.64H215.836V0.914429H217.526V7.84791L221.794 0.914429Z" fill="white"/>
<path d="M233.294 2.27696H230.26V10.64H228.583V2.27696H225.578V0.914429H233.294V2.27696Z" fill="white"/>
<path d="M237.268 4.63493H239.258C239.971 4.63493 240.593 4.75745 241.122 5.00232C241.652 5.24719 242.055 5.59466 242.331 6.04443C242.608 6.4942 242.745 7.0151 242.745 7.60745C242.745 8.5158 242.436 9.24616 241.818 9.79837C241.202 10.3506 240.363 10.631 239.299 10.64H235.578V0.914429H237.268V4.63493ZM245.391 10.64H243.707V0.914429H245.391V10.64ZM237.268 5.99092V9.2907H239.252C239.822 9.2907 240.266 9.13702 240.582 8.82983C240.901 8.51808 241.062 8.10616 241.062 7.59407C241.062 7.10417 240.906 6.71672 240.594 6.43173C240.283 6.14672 239.851 5.99989 239.299 5.99092H237.268Z" fill="white"/>
<path d="M139.959 25.8399H138.462V18.4062H134.656V25.8399H133.16V17.1949H139.959V25.8399Z" fill="white"/>
<path d="M143.399 22.6277V25.8399H141.896V17.1949H145.204C146.17 17.1949 146.935 17.4464 147.502 17.949C148.072 18.4517 148.356 19.1167 148.356 19.944C148.356 20.7911 148.078 21.4502 147.52 21.9212C146.965 22.3923 146.187 22.6277 145.186 22.6277H143.399ZM143.399 21.4225H145.204C145.738 21.4225 146.146 21.2977 146.427 21.0485C146.708 20.7951 146.848 20.4309 146.848 19.9559C146.848 19.4888 146.706 19.1167 146.421 18.8396C146.136 18.5585 145.744 18.4141 145.245 18.4062H143.399V21.4225Z" fill="white"/>
<path d="M153.579 23.8272H150.23L149.529 25.8399H147.967L151.233 17.1949H152.582L155.853 25.8399H154.285L153.579 23.8272ZM150.651 22.6159H153.158L151.904 19.0296L150.651 22.6159Z" fill="white"/>
<path d="M156.961 25.8399V17.1949H159.925C160.902 17.1949 161.646 17.3909 162.156 17.7827C162.667 18.1746 162.922 18.7584 162.922 19.5344C162.922 19.9302 162.816 20.2865 162.602 20.6031C162.389 20.9197 162.076 21.1652 161.664 21.3394C162.13 21.466 162.491 21.7054 162.745 22.0577C163.001 22.4061 163.131 22.8256 163.131 23.3164C163.131 24.128 162.869 24.7515 162.346 25.1868C161.828 25.6223 161.085 25.8399 160.115 25.8399H156.961ZM158.464 21.939V24.6405H160.132C160.603 24.6405 160.971 24.5238 161.237 24.2903C161.501 24.0567 161.635 23.7322 161.635 23.3164C161.635 22.418 161.176 21.9588 160.256 21.939H158.464ZM158.464 20.8346H159.936C160.404 20.8346 160.767 20.7297 161.028 20.5199C161.294 20.3062 161.427 20.0054 161.427 19.6174C161.427 19.1899 161.304 18.8812 161.059 18.6912C160.817 18.5012 160.439 18.4062 159.925 18.4062H158.464V20.8346Z" fill="white"/>
<path d="M175.854 27.9655H174.428V25.8399H168.734V27.9655H167.285L167.238 24.6405H167.933C168.278 24.3081 168.553 23.8252 168.758 23.1918C168.963 22.5545 169.097 21.8341 169.157 21.0305L169.381 17.1949H174.832V24.6405H175.931L175.854 27.9655ZM169.631 24.6405H173.337V18.4062H170.813L170.67 20.8405C170.563 22.4674 170.217 23.7341 169.631 24.6405Z" fill="white"/>
<path d="M183.937 21.7432C183.937 22.5902 183.791 23.3344 183.497 23.9756C183.204 24.6129 182.784 25.1037 182.239 25.4482C181.696 25.7885 181.071 25.9587 180.363 25.9587C179.662 25.9587 179.036 25.7885 178.486 25.4482C177.94 25.1037 177.516 24.6149 177.215 23.9815C176.919 23.3483 176.768 22.6179 176.764 21.7906V21.3037C176.764 20.4606 176.913 19.7165 177.209 19.0713C177.51 18.4261 177.933 17.9333 178.474 17.5928C179.021 17.2485 179.646 17.0763 180.351 17.0763C181.055 17.0763 181.679 17.2465 182.22 17.5869C182.768 17.9234 183.189 18.4102 183.485 19.0474C183.783 19.6808 183.934 20.4191 183.937 21.2622V21.7432ZM182.435 21.2919C182.435 20.334 182.252 19.5996 181.889 19.0891C181.529 18.5785 181.015 18.3232 180.351 18.3232C179.702 18.3232 179.193 18.5785 178.825 19.0891C178.46 19.5957 178.275 20.3142 178.267 21.2444V21.7432C178.267 22.6932 178.451 23.4275 178.819 23.9459C179.191 24.4646 179.705 24.7237 180.363 24.7237C181.027 24.7237 181.538 24.4705 181.894 23.9637C182.254 23.4571 182.435 22.7169 182.435 21.7432V21.2919Z" fill="white"/>
<path d="M192.162 17.1949V25.8399H190.666V18.4062H188.018L187.863 21.749C187.804 22.794 187.675 23.6054 187.477 24.1834C187.284 24.7574 187 25.1769 186.629 25.4422C186.257 25.7074 185.758 25.8399 185.132 25.8399H184.752V24.6405L184.991 24.6227C185.334 24.5911 185.6 24.4704 185.786 24.2605C185.976 24.0508 186.118 23.7341 186.213 23.3105C186.311 22.8831 186.381 22.2556 186.421 21.4285L186.587 17.1949H192.162Z" fill="white"/>
<path d="M195.574 20.5022H197.343C197.977 20.5022 198.529 20.611 199 20.8287C199.471 21.0465 199.83 21.3552 200.075 21.7549C200.321 22.1547 200.443 22.6179 200.443 23.1444C200.443 23.9518 200.167 24.601 199.617 25.0918C199.072 25.5826 198.325 25.832 197.38 25.8399H194.072V17.1949H195.574V20.5022ZM195.574 21.7074V24.6405H197.337C197.845 24.6405 198.239 24.504 198.52 24.2309C198.804 23.9538 198.947 23.5876 198.947 23.1325C198.947 22.697 198.809 22.3526 198.532 22.0994C198.254 21.846 197.871 21.7154 197.38 21.7074H195.574Z" fill="white"/>
<path d="M203.396 17.1949V24.6405H206.032V17.1949H207.529V24.6405H210.147V17.1949H211.644V24.6881H212.653L212.533 27.9181H211.215V25.8399H201.889V17.1949H203.396Z" fill="white"/>
<path d="M219.407 17.1949H220.908V25.8399H219.407V19.6827L215.613 25.8399H214.109V17.1949H215.613V23.3581L219.407 17.1949Z" fill="white"/>
<path d="M225.388 22.1349H224.367V25.8399H222.871V17.1949H224.367V20.8287H225.192L227.734 17.1949H229.574L226.606 21.3335L229.836 25.8399H228.031L225.388 22.1349Z" fill="white"/>
<path d="M237.499 21.7432C237.499 22.5902 237.353 23.3344 237.06 23.9756C236.766 24.6129 236.347 25.1037 235.801 25.4482C235.259 25.7885 234.634 25.9587 233.924 25.9587C233.225 25.9587 232.599 25.7885 232.048 25.4482C231.503 25.1037 231.079 24.6149 230.778 23.9815C230.481 23.3483 230.331 22.6179 230.326 21.7906V21.3037C230.326 20.4606 230.475 19.7165 230.772 19.0713C231.072 18.4261 231.495 17.9333 232.036 17.5928C232.583 17.2485 233.208 17.0763 233.913 17.0763C234.617 17.0763 235.24 17.2465 235.783 17.5869C236.33 17.9234 236.751 18.4102 237.048 19.0474C237.344 19.6808 237.494 20.4191 237.499 21.2622V21.7432ZM235.997 21.2919C235.997 20.334 235.815 19.5996 235.45 19.0891C235.09 18.5785 234.578 18.3232 233.913 18.3232C233.264 18.3232 232.755 18.5785 232.387 19.0891C232.022 19.5957 231.837 20.3142 231.829 21.2444V21.7432C231.829 22.6932 232.013 23.4275 232.381 23.9459C232.754 24.4646 233.267 24.7237 233.924 24.7237C234.59 24.7237 235.1 24.4705 235.456 23.9637C235.816 23.4571 235.997 22.7169 235.997 21.7432V21.2919Z" fill="white"/>
<path d="M239.115 25.8399V17.1949H242.079C243.057 17.1949 243.8 17.3909 244.311 17.7827C244.821 18.1746 245.077 18.7584 245.077 19.5344C245.077 19.9302 244.97 20.2865 244.756 20.6031C244.543 20.9197 244.23 21.1652 243.818 21.3394C244.285 21.466 244.645 21.7054 244.899 22.0577C245.156 22.4061 245.285 22.8256 245.285 23.3164C245.285 24.128 245.023 24.7515 244.501 25.1868C243.982 25.6223 243.239 25.8399 242.269 25.8399H239.115ZM240.619 21.939V24.6405H242.286C242.757 24.6405 243.125 24.5238 243.391 24.2903C243.655 24.0567 243.789 23.7322 243.789 23.3164C243.789 22.418 243.33 21.9588 242.411 21.939H240.619ZM240.619 20.8346H242.09C242.558 20.8346 242.921 20.7297 243.183 20.5199C243.449 20.3062 243.581 20.0054 243.581 19.6174C243.581 19.1899 243.458 18.8812 243.213 18.6912C242.971 18.5012 242.593 18.4062 242.079 18.4062H240.619V20.8346Z" fill="white"/>
<path d="M135.067 29.355L137.56 35.9813L140.048 29.355H141.99V38H140.494V35.15L140.642 31.3381L138.089 38H137.014L134.467 31.3441L134.615 35.15V38H133.119V29.355H135.067Z" fill="white"/>
<path d="M142.996 34.7286C142.996 34.0991 143.121 33.5331 143.37 33.0304C143.62 32.5236 143.97 32.1357 144.421 31.8666C144.872 31.5936 145.391 31.4569 145.977 31.4569C146.844 31.4569 147.546 31.736 148.084 32.2941C148.627 32.8523 148.92 33.5925 148.963 34.5147L148.969 34.8532C148.969 35.4866 148.846 36.0526 148.601 36.5513C148.36 37.0501 148.011 37.436 147.555 37.7091C147.105 37.9823 146.582 38.1188 145.989 38.1188C145.082 38.1188 144.356 37.818 143.81 37.2163C143.267 36.6106 142.996 35.8052 142.996 34.7997V34.7286ZM144.439 34.8532C144.439 35.5142 144.576 36.0327 144.849 36.4088C145.122 36.7809 145.502 36.9669 145.989 36.9669C146.476 36.9669 146.854 36.7769 147.123 36.3969C147.396 36.0169 147.533 35.4607 147.533 34.7286C147.533 34.0794 147.392 33.5647 147.111 33.1847C146.834 32.8047 146.456 32.6147 145.977 32.6147C145.506 32.6147 145.132 32.8027 144.855 33.1788C144.578 33.5509 144.439 34.109 144.439 34.8532Z" fill="white"/>
<path d="M152.464 36.9669C152.824 36.9669 153.124 36.862 153.361 36.6523C153.598 36.4425 153.726 36.1832 153.741 35.8745H155.101C155.084 36.2742 154.96 36.6483 154.726 36.9966C154.493 37.341 154.175 37.6141 153.776 37.816C153.376 38.0178 152.946 38.1188 152.482 38.1188C151.584 38.1188 150.871 37.8278 150.345 37.246C149.818 36.6641 149.555 35.8605 149.555 34.8354V34.6869C149.555 33.7092 149.816 32.9275 150.339 32.3416C150.86 31.7518 151.573 31.4569 152.476 31.4569C153.241 31.4569 153.861 31.6805 154.341 32.1278C154.823 32.5712 155.077 33.1551 155.101 33.8795H153.741C153.726 33.5113 153.598 33.2086 153.361 32.971C153.127 32.7336 152.829 32.6147 152.464 32.6147C151.997 32.6147 151.637 32.7849 151.383 33.1254C151.131 33.4618 151.002 33.9745 150.997 34.6632V34.8947C150.997 35.5915 151.122 36.1119 151.371 36.4563C151.625 36.7967 151.99 36.9669 152.464 36.9669Z" fill="white"/>
<path d="M158.108 35.4587H157.378V38H155.936V31.5756H157.378V34.1406H158.013L159.789 31.5756H161.57L159.248 34.6513L161.766 38H159.889L158.108 35.4587Z" fill="white"/>
<path d="M161.578 34.7286C161.578 34.0991 161.703 33.5331 161.952 33.0304C162.201 32.5236 162.551 32.1357 163.002 31.8666C163.454 31.5936 163.972 31.4569 164.559 31.4569C165.425 31.4569 166.127 31.736 166.666 32.2941C167.208 32.8523 167.502 33.5925 167.546 34.5147L167.55 34.8532C167.55 35.4866 167.429 36.0526 167.182 36.5513C166.941 37.0501 166.593 37.436 166.138 37.7091C165.687 37.9823 165.164 38.1188 164.569 38.1188C163.664 38.1188 162.937 37.818 162.391 37.2163C161.849 36.6106 161.578 35.8052 161.578 34.7997V34.7286ZM163.021 34.8532C163.021 35.5142 163.157 36.0327 163.429 36.4088C163.703 36.7809 164.083 36.9669 164.569 36.9669C165.057 36.9669 165.434 36.7769 165.705 36.3969C165.977 36.0169 166.114 35.4607 166.114 34.7286C166.114 34.0794 165.974 33.5647 165.693 33.1847C165.415 32.8047 165.038 32.6147 164.559 32.6147C164.088 32.6147 163.714 32.8027 163.436 33.1788C163.159 33.5509 163.021 34.109 163.021 34.8532Z" fill="white"/>
<path d="M168.518 38V31.5756H171.124C172.003 31.5756 172.672 31.73 173.132 32.0387C173.591 32.3435 173.821 32.7829 173.821 33.3569C173.821 33.6537 173.727 33.9209 173.541 34.1585C173.359 34.392 173.088 34.5721 172.728 34.6987C173.148 34.7858 173.48 34.962 173.725 35.2272C173.971 35.4925 174.093 35.8051 174.093 36.1654C174.093 36.763 173.873 37.2183 173.429 37.5309C172.989 37.8436 172.356 38 171.529 38H168.518ZM169.962 35.2628V36.86H171.541C172.281 36.86 172.65 36.5948 172.65 36.0644C172.65 35.53 172.275 35.2628 171.523 35.2628H169.962ZM169.962 34.2296H171.149C171.968 34.2296 172.377 33.9883 172.377 33.5054C172.377 32.9986 171.989 32.7375 171.214 32.7215H169.962V34.2296Z" fill="white"/>
<path d="M177.616 36.9669C177.977 36.9669 178.276 36.862 178.513 36.6523C178.75 36.4425 178.876 36.1832 178.893 35.8745H180.252C180.237 36.2742 180.112 36.6483 179.878 36.9966C179.646 37.341 179.328 37.6141 178.928 37.816C178.528 38.0178 178.097 38.1188 177.635 38.1188C176.736 38.1188 176.023 37.8278 175.496 37.246C174.97 36.6641 174.707 35.8605 174.707 34.8354V34.6869C174.707 33.7092 174.968 32.9275 175.491 32.3416C176.013 31.7518 176.726 31.4569 177.628 31.4569C178.392 31.4569 179.013 31.6805 179.492 32.1278C179.975 32.5712 180.229 33.1551 180.252 33.8795H178.893C178.876 33.5113 178.75 33.2086 178.513 32.971C178.279 32.7336 177.981 32.6147 177.616 32.6147C177.15 32.6147 176.789 32.7849 176.536 33.1254C176.282 33.4618 176.154 33.9745 176.15 34.6632V34.8947C176.15 35.5915 176.274 36.1119 176.523 36.4563C176.777 36.7967 177.141 36.9669 177.616 36.9669Z" fill="white"/>
<path d="M183.261 35.4587H182.532V38H181.088V31.5756H182.532V34.1406H183.167L184.943 31.5756H186.723L184.401 34.6513L186.919 38H185.043L183.261 35.4587Z" fill="white"/>
<path d="M186.732 34.7286C186.732 34.0991 186.857 33.5331 187.106 33.0304C187.356 32.5236 187.705 32.1357 188.157 31.8666C188.608 31.5936 189.126 31.4569 189.712 31.4569C190.58 31.4569 191.282 31.736 191.82 32.2941C192.363 32.8523 192.656 33.5925 192.698 34.5147L192.705 34.8532C192.705 35.4866 192.581 36.0526 192.337 36.5513C192.095 37.0501 191.747 37.436 191.292 37.7091C190.841 37.9823 190.318 38.1188 189.724 38.1188C188.818 38.1188 188.091 37.818 187.546 37.2163C187.003 36.6106 186.732 35.8052 186.732 34.7997V34.7286ZM188.175 34.8532C188.175 35.5142 188.312 36.0327 188.584 36.4088C188.857 36.7809 189.237 36.9669 189.724 36.9669C190.212 36.9669 190.589 36.7769 190.858 36.3969C191.131 36.0169 191.268 35.4607 191.268 34.7286C191.268 34.0794 191.127 33.5647 190.847 33.1847C190.569 32.8047 190.192 32.6147 189.712 32.6147C189.242 32.6147 188.867 32.8027 188.59 33.1788C188.313 33.5509 188.175 34.109 188.175 34.8532Z" fill="white"/>
<path d="M197.57 31.5755H199.007V38H197.57V33.7131L195.052 38H193.615V31.5755H195.052V35.8625L197.57 31.5755ZM198.247 29.1115C198.247 29.6103 198.072 30.014 197.724 30.3227C197.376 30.6314 196.911 30.7859 196.328 30.7859C195.746 30.7859 195.281 30.6314 194.933 30.3227C194.585 30.014 194.412 29.6103 194.412 29.1115H195.491C195.491 29.3727 195.565 29.5766 195.711 29.7231C195.862 29.8655 196.067 29.9368 196.328 29.9368C196.59 29.9368 196.794 29.8655 196.941 29.7231C197.087 29.5766 197.16 29.3727 197.16 29.1115H198.247Z" fill="white"/>
<path d="M202.57 34.7286C202.57 34.0991 202.695 33.5331 202.944 33.0304C203.194 32.5236 203.545 32.1357 203.996 31.8666C204.447 31.5936 204.966 31.4569 205.551 31.4569C206.417 31.4569 207.121 31.736 207.659 32.2941C208.202 32.8523 208.494 33.5925 208.538 34.5147L208.544 34.8532C208.544 35.4866 208.421 36.0526 208.176 36.5513C207.934 37.0501 207.586 37.436 207.13 37.7091C206.679 37.9823 206.158 38.1188 205.563 38.1188C204.657 38.1188 203.931 37.818 203.383 37.2163C202.842 36.6106 202.57 35.8052 202.57 34.7997V34.7286ZM204.013 34.8532C204.013 35.5142 204.15 36.0327 204.423 36.4088C204.697 36.7809 205.077 36.9669 205.563 36.9669C206.05 36.9669 206.428 36.7769 206.697 36.3969C206.971 36.0169 207.108 35.4607 207.108 34.7286C207.108 34.0794 206.966 33.5647 206.685 33.1847C206.408 32.8047 206.03 32.6147 205.551 32.6147C205.08 32.6147 204.706 32.8027 204.429 33.1788C204.153 33.5509 204.013 34.109 204.013 34.8532Z" fill="white"/>
<path d="M212.425 31.9319C213.232 31.9319 213.88 32.203 214.366 32.7454C214.853 33.2836 215.097 34.0159 215.097 34.9422V35.0135C215.097 35.9396 214.831 36.6898 214.301 37.2637C213.775 37.8377 213.057 38.1246 212.151 38.1246C211.268 38.1246 210.557 37.8317 210.014 37.2459C209.472 36.6601 209.201 35.8604 209.201 34.8472V34.4315C209.201 33.0462 209.446 31.9496 209.937 31.1422C210.428 30.3346 211.16 29.83 212.133 29.6281C212.68 29.5173 213.033 29.4004 213.191 29.2778C213.352 29.1512 213.434 28.9809 213.434 28.7672H214.597C214.597 29.167 214.533 29.4915 214.403 29.7409C214.272 29.9904 214.071 30.1942 213.802 30.3526C213.533 30.5069 213.07 30.6534 212.413 30.7919C211.811 30.9185 211.352 31.1442 211.036 31.4687C210.723 31.7934 210.513 32.2425 210.407 32.8165C210.98 32.2267 211.653 31.9319 212.425 31.9319ZM212.139 33.0896C211.673 33.0896 211.306 33.248 211.042 33.5646C210.776 33.8775 210.644 34.3604 210.644 35.0135C210.644 35.6309 210.774 36.1119 211.036 36.4563C211.297 36.8006 211.668 36.9728 212.151 36.9728C212.63 36.9728 213.001 36.8006 213.263 36.4563C213.527 36.1079 213.659 35.5855 213.659 34.8887C213.659 34.3345 213.527 33.8972 213.263 33.5765C213.001 33.252 212.627 33.0896 212.139 33.0896Z" fill="white"/>
<path d="M221.322 31.5756V38H219.878V32.7394H218.062L217.943 34.9778C217.867 36.0545 217.661 36.8284 217.32 37.2994C216.983 37.7665 216.467 38 215.77 38H215.324L215.318 36.8006L215.616 36.7709C215.932 36.7274 216.162 36.5355 216.305 36.195C216.451 35.8506 216.543 35.2252 216.583 34.3187L216.703 31.5756H221.322Z" fill="white"/>
<path d="M226.332 38.0001C226.268 37.8774 226.214 37.6775 226.165 37.4004C225.706 37.8794 225.144 38.1188 224.479 38.1188C223.833 38.1188 223.307 37.9347 222.9 37.5666C222.493 37.1986 222.289 36.7433 222.289 36.201C222.289 35.5162 222.541 34.9917 223.049 34.6275C223.558 34.2595 224.288 34.0754 225.233 34.0754H226.118V33.6538C226.118 33.3213 226.025 33.0561 225.838 32.8582C225.653 32.6563 225.37 32.5554 224.99 32.5554C224.662 32.5554 224.393 32.6386 224.183 32.8047C223.973 32.967 223.868 33.1748 223.868 33.4282H222.424C222.424 33.0759 222.541 32.7474 222.775 32.4426C223.01 32.1338 223.326 31.8924 223.725 31.7182C224.128 31.544 224.578 31.4569 225.074 31.4569C225.825 31.4569 226.425 31.6469 226.872 32.0269C227.319 32.403 227.548 32.9334 227.56 33.6182V36.5156C227.56 37.0935 227.642 37.5547 227.804 37.8991V38.0001H226.332ZM224.747 36.961C225.031 36.961 225.299 36.8917 225.548 36.7532C225.802 36.6146 225.992 36.4285 226.118 36.1951V34.9838H225.34C224.806 34.9838 224.403 35.0768 224.134 35.2628C223.865 35.4489 223.732 35.7121 223.732 36.0526C223.732 36.3296 223.823 36.5513 224.004 36.7175C224.191 36.8798 224.438 36.961 224.747 36.961Z" fill="white"/>
<path d="M231.345 36.9669C231.705 36.9669 232.003 36.862 232.242 36.6523C232.479 36.4425 232.605 36.1832 232.622 35.8745H233.98C233.965 36.2742 233.841 36.6483 233.607 36.9966C233.372 37.341 233.056 37.6141 232.657 37.816C232.257 38.0178 231.825 38.1188 231.363 38.1188C230.463 38.1188 229.752 37.8278 229.224 37.246C228.699 36.6641 228.436 35.8605 228.436 34.8354V34.6869C228.436 33.7092 228.697 32.9275 229.218 32.3416C229.741 31.7518 230.454 31.4569 231.357 31.4569C232.12 31.4569 232.742 31.6805 233.22 32.1278C233.704 32.5712 233.958 33.1551 233.98 33.8795H232.622C232.605 33.5113 232.479 33.2086 232.242 32.971C232.008 32.7336 231.708 32.6147 231.345 32.6147C230.877 32.6147 230.518 32.7849 230.264 33.1254C230.01 33.4618 229.883 33.9745 229.878 34.6632V34.8947C229.878 35.5915 230.003 36.1119 230.252 36.4563C230.506 36.7967 230.869 36.9669 231.345 36.9669Z" fill="white"/>
<path d="M239.761 32.7215H237.677V38H236.235V32.7215H234.174V31.5756H239.761V32.7215Z" fill="white"/>
<path d="M244.373 31.5756H245.809V38H244.373V33.7131L241.854 38H240.418V31.5756H241.854V35.8626L244.373 31.5756Z" fill="white"/>
</g>
<defs>
<clipPath id="clip0">
<rect width="247" height="38" fill="white"/>
</clipPath>
</defs>
</svg>
