<svg width="24" height="24" viewBox="0 0 24 24" fill="none" xmlns="http://www.w3.org/2000/svg">
<g clip-path="url(#clip0)">
<rect x="0.5" y="0.5" width="23" height="23" rx="1.5" stroke="#28BC00" stroke-linecap="round" stroke-linejoin="round"/>
<path d="M4.90479 5.10453C4.71149 5.10453 4.55479 5.26123 4.55479 5.45453V18.5454C4.55479 18.7387 4.71149 18.8954 4.90479 18.8954H7.58944C7.78274 18.8954 7.93944 18.7387 7.93944 18.5454V11.5418L10.7608 18.6113C10.8139 18.7443 10.9427 18.8315 11.0859 18.8315H12.914C13.0571 18.8315 13.1857 18.7445 13.2389 18.6117L16.0605 11.5684V18.5454C16.0605 18.7387 16.2172 18.8954 16.4105 18.8954H19.0951C19.2884 18.8954 19.4451 18.7387 19.4451 18.5454V5.45453C19.4451 5.26123 19.2884 5.10453 19.0951 5.10453H15.6818C15.5397 5.10453 15.4118 5.19037 15.3579 5.32179L12 13.5143L8.64199 5.32179C8.58812 5.19037 8.46017 5.10453 8.31814 5.10453H4.90479Z" fill="#28BC00" stroke="#28BC00" stroke-width="0.7" stroke-linecap="round" stroke-linejoin="round"/>
</g>
<defs>
<clipPath id="clip0">
<rect width="24" height="24" fill="white"/>
</clipPath>
</defs>
</svg>
