<svg width="56" height="56" viewBox="0 0 56 56" fill="none" xmlns="http://www.w3.org/2000/svg">
<path d="M0 4C0 1.79086 1.79086 0 4 0H52C54.2091 0 56 1.79086 56 4V52C56 54.2091 54.2091 56 52 56H4C1.79086 56 0 54.2091 0 52V4Z" fill="#80CBA3"/>
<g clip-path="url(#clip0)">
<path d="M44.1837 13.9184L34.4837 14.3652V11.0489C34.4837 10.4017 33.9591 9.87701 33.3119 9.87701H26.2533L23.8185 8.20718C23.6234 8.07335 23.3923 8.00171 23.1556 8.00171L17.8432 8.00202C17.2583 8.00202 16.7629 8.43335 16.6826 9.01272L16.4323 10.8145H12.4527C12.1418 10.8145 11.8438 10.938 11.6241 11.1578C11.4043 11.3775 11.2808 11.6756 11.2808 11.9864L11.1746 16.9159L8.3852 18.3048C8.13966 18.527 7.9995 18.8426 7.9995 19.1738L7.99927 25.1113C7.99927 25.422 8.1227 25.7201 8.34247 25.9399C8.56223 26.1597 8.86028 26.2832 9.17113 26.2832L15.2076 26.5131L17.8432 30.7805L16.5115 34.946L13.7285 39.6555C13.5565 39.9467 13.5186 40.2979 13.6246 40.619C13.7306 40.9401 13.9702 41.1998 14.2816 41.3313L29.8092 47.9091C29.9566 47.9713 30.1114 48.0015 30.2646 48.0015C30.5943 48.0015 30.9171 47.8623 31.1445 47.6041L36.6132 41.3935C36.8016 41.1795 36.9056 40.9041 36.9056 40.619V38.5489L41.1243 38.5488C41.7381 38.5488 42.2479 38.0752 42.293 37.4631L47.0637 32.2125L47.7533 25.3372C48.002 25.1149 48.1442 24.7971 48.1442 24.4635L45.1488 15.0719C45.1488 14.5044 44.7422 14.0186 44.1837 13.9184ZM45.8004 23.9393L45.1488 30.7805C44.9225 30.9829 44.7834 31.2653 44.7612 31.5681L40.0357 36.205L35.7337 36.2051C35.0866 36.2051 34.5619 36.7298 34.5619 37.377V40.1765L29.9432 45.4216L16.4284 39.6934L18.7932 35.6915C18.9614 35.407 19.0015 35.0648 18.9039 34.7491L19.9853 29.7742C19.9218 29.569 19.8032 29.3852 19.6424 29.243L16.4284 24.4635C16.2141 24.2739 15.9379 24.1692 15.6518 24.1692L10.3431 23.9393L10.3432 19.6938L13.1327 18.3048C13.3782 18.0826 13.5184 17.767 13.5184 17.4359L13.6246 13.1582H17.4527C18.0376 13.1582 18.5329 12.7268 18.6134 12.1475L18.8636 10.3456L22.7926 10.3454L25.2273 12.0152C25.4225 12.149 25.6535 12.2207 25.8901 12.2207H32.1401V15.3456C32.1401 15.9131 32.5467 16.399 33.1052 16.4991L42.8051 16.0524L45.8004 23.9393Z" fill="white"/>
</g>
<defs>
<clipPath id="clip0">
<rect width="40" height="40" fill="white" transform="translate(8 8)"/>
</clipPath>
</defs>
</svg>
