<svg width="48" height="48" viewBox="0 0 48 48" fill="none" xmlns="http://www.w3.org/2000/svg">
<path d="M0 8C0 3.58172 3.58172 0 8 0H40C44.4183 0 48 3.58172 48 8V40C48 44.4183 44.4183 48 40 48H8C3.58172 48 0 44.4183 0 40V8Z" fill="white"/>
<path d="M15.75 33.7498V14.2498C15.75 13.8355 16.0858 13.4998 16.5 13.4998H27.75V16.4998C27.75 17.3282 28.4216 17.9998 29.25 17.9998H32.25V20.2498H33.75V17.2498C33.7512 17.0504 33.6729 16.8588 33.5325 16.7173L29.0325 12.2173C28.891 12.0769 28.6994 11.9986 28.5 11.9998H16.5C15.2573 11.9998 14.25 13.0072 14.25 14.2498V33.7498C14.25 34.9924 15.2573 35.9998 16.5 35.9998H25.5V34.4998H16.5C16.0858 34.4998 15.75 34.164 15.75 33.7498Z" fill="#CACACA"/>
<path fill-rule="evenodd" clip-rule="evenodd" d="M35.1791 23.9739C35.6077 24.349 35.6511 25.0005 35.2761 25.4291L30.0261 31.4291C29.8381 31.6439 29.5696 31.7712 29.2843 31.7807C28.9991 31.7902 28.7226 31.681 28.5208 31.4792L25.5208 28.4792C25.1181 28.0765 25.1181 27.4235 25.5208 27.0208C25.9235 26.6181 26.5765 26.6181 26.9792 27.0208L29.1998 29.2414L33.7239 24.0709C34.099 23.6423 34.7505 23.5989 35.1791 23.9739Z" fill="#CACACA"/>
<rect x="17.25" y="19.5" width="9" height="1.5" rx="0.75" fill="#CACACA"/>
<rect x="17.25" y="22.5" width="5.3752" height="1.5" rx="0.75" fill="#CACACA"/>
<path d="M8 1H40V-1H8V1ZM47 8V40H49V8H47ZM40 47H8V49H40V47ZM1 40V8H-1V40H1ZM8 47C4.13401 47 1 43.866 1 40H-1C-1 44.9706 3.02944 49 8 49V47ZM47 40C47 43.866 43.866 47 40 47V49C44.9706 49 49 44.9706 49 40H47ZM40 1C43.866 1 47 4.13401 47 8H49C49 3.02944 44.9706 -1 40 -1V1ZM8 -1C3.02944 -1 -1 3.02944 -1 8H1C1 4.13401 4.13401 1 8 1V-1Z" fill="#DBDFE6"/>
</svg>
