<svg width="48" height="48" viewBox="0 0 48 48" fill="none" xmlns="http://www.w3.org/2000/svg">
<path d="M0 8C0 3.58172 3.58172 0 8 0H40C44.4183 0 48 3.58172 48 8V40C48 44.4183 44.4183 48 40 48H8C3.58172 48 0 44.4183 0 40V8Z" fill="white"/>
<path d="M15.75 33.7498V14.2498C15.75 13.8355 16.0858 13.4998 16.5 13.4998H27.75V16.4998C27.75 17.3282 28.4216 17.9998 29.25 17.9998H32.25V20.2498H33.75V17.2498C33.7512 17.0504 33.6729 16.8588 33.5325 16.7173L29.0325 12.2173C28.891 12.0769 28.6994 11.9986 28.5 11.9998H16.5C15.2573 11.9998 14.25 13.0072 14.25 14.2498V33.7498C14.25 34.9924 15.2573 35.9998 16.5 35.9998H25.5V34.4998H16.5C16.0858 34.4998 15.75 34.164 15.75 33.7498Z" fill="#CACACA"/>
<rect x="17.25" y="19.5" width="9" height="1.5" rx="0.75" fill="#CACACA"/>
<rect x="17.25" y="22.5" width="5.3752" height="1.5" rx="0.75" fill="#CACACA"/>
<path fill-rule="evenodd" clip-rule="evenodd" d="M33.8 26.5C33.8 28.3225 32.3225 29.8 30.5 29.8C28.6775 29.8 27.2 28.3225 27.2 26.5C27.2 24.6775 28.6775 23.2 30.5 23.2C32.3225 23.2 33.8 24.6775 33.8 26.5ZM33 30.2422C34.206 29.435 35 28.0602 35 26.5C35 24.0147 32.9853 22 30.5 22C28.0147 22 26 24.0147 26 26.5C26 28.0602 26.794 29.435 28 30.2422V34.5172C28 34.6953 28.2154 34.7846 28.3414 34.6586L29.1086 33.8914C29.1867 33.8133 29.3133 33.8133 29.3914 33.8914L30.3586 34.8586C30.4367 34.9367 30.5633 34.9367 30.6414 34.8586L31.6086 33.8914C31.6867 33.8133 31.8133 33.8133 31.8914 33.8914L32.6586 34.6586C32.7846 34.7846 33 34.6953 33 34.5172V30.2422Z" fill="#CACACA"/>
<path d="M8 1H40V-1H8V1ZM47 8V40H49V8H47ZM40 47H8V49H40V47ZM1 40V8H-1V40H1ZM8 47C4.13401 47 1 43.866 1 40H-1C-1 44.9706 3.02944 49 8 49V47ZM47 40C47 43.866 43.866 47 40 47V49C44.9706 49 49 44.9706 49 40H47ZM40 1C43.866 1 47 4.13401 47 8H49C49 3.02944 44.9706 -1 40 -1V1ZM8 -1C3.02944 -1 -1 3.02944 -1 8H1C1 4.13401 4.13401 1 8 1V-1Z" fill="#DBDFE6"/>
</svg>
