<svg width="48" height="48" viewBox="0 0 48 48" fill="none" xmlns="http://www.w3.org/2000/svg">
<path d="M0 8C0 3.58172 3.58172 0 8 0H40C44.4183 0 48 3.58172 48 8V40C48 44.4183 44.4183 48 40 48H8C3.58172 48 0 44.4183 0 40V8Z" fill="white"/>
<path d="M28.2756 26.1192L24.9294 23.6096V18.4973C24.9294 17.9832 24.5139 17.5677 23.9998 17.5677C23.4858 17.5677 23.0703 17.9832 23.0703 18.4973V24.0744C23.0703 24.3672 23.2079 24.6432 23.4421 24.818L27.1602 27.6065C27.3275 27.732 27.5227 27.7925 27.7169 27.7925C28.0004 27.7925 28.2793 27.6651 28.4615 27.4197C28.7702 27.0097 28.6865 26.4269 28.2756 26.1192Z" fill="#CACACA"/>
<path d="M24 12C17.3828 12 12 17.3828 12 24C12 30.6172 17.3828 36 24 36C30.6172 36 36 30.6172 36 24C36 17.3828 30.6172 12 24 12ZM24 34.141C18.409 34.141 13.859 29.591 13.859 24C13.859 18.409 18.409 13.859 24 13.859C29.592 13.859 34.141 18.409 34.141 24C34.141 29.591 29.591 34.141 24 34.141Z" fill="#CACACA"/>
<path d="M8 1H40V-1H8V1ZM47 8V40H49V8H47ZM40 47H8V49H40V47ZM1 40V8H-1V40H1ZM8 47C4.13401 47 1 43.866 1 40H-1C-1 44.9706 3.02944 49 8 49V47ZM47 40C47 43.866 43.866 47 40 47V49C44.9706 49 49 44.9706 49 40H47ZM40 1C43.866 1 47 4.13401 47 8H49C49 3.02944 44.9706 -1 40 -1V1ZM8 -1C3.02944 -1 -1 3.02944 -1 8H1C1 4.13401 4.13401 1 8 1V-1Z" fill="#DBDFE6"/>
</svg>
