<svg width="48" height="48" viewBox="0 0 48 48" fill="none" xmlns="http://www.w3.org/2000/svg">
<path d="M0 8C0 3.58172 3.58172 0 8 0H40C44.4183 0 48 3.58172 48 8V40C48 44.4183 44.4183 48 40 48H8C3.58172 48 0 44.4183 0 40V8Z" fill="white"/>
<path d="M25.3513 25.875C29.8899 25.875 32 23.1797 32 19.9375C32 16.6953 29.8899 14 25.3513 14H18.2248V23.7266H15V25.875H18.2248V27.75H15V29.8984H18.2248V34H20.6932V29.8984H25.192V27.75H20.6932V25.875H25.3513ZM20.6932 23.7266V16.1484H25.3513C28.2178 16.1484 29.5714 17.75 29.5714 19.9375C29.5714 22.125 28.2178 23.7266 25.3513 23.7266H20.6932Z" fill="#CACACA"/>
<path d="M8 1H40V-1H8V1ZM47 8V40H49V8H47ZM40 47H8V49H40V47ZM1 40V8H-1V40H1ZM8 47C4.13401 47 1 43.866 1 40H-1C-1 44.9706 3.02944 49 8 49V47ZM47 40C47 43.866 43.866 47 40 47V49C44.9706 49 49 44.9706 49 40H47ZM40 1C43.866 1 47 4.13401 47 8H49C49 3.02944 44.9706 -1 40 -1V1ZM8 -1C3.02944 -1 -1 3.02944 -1 8H1C1 4.13401 4.13401 1 8 1V-1Z" fill="#DBDFE6"/>
</svg>
