<svg width="24" height="24" viewBox="0 0 24 24" fill="none" xmlns="http://www.w3.org/2000/svg">
<path d="M17.1428 4.28564H2.57143C1.15127 4.28564 0 5.43691 0 6.85707V21.4285C0 22.8486 1.15127 23.9999 2.57143 23.9999H17.1428C18.563 23.9999 19.7143 22.8486 19.7143 21.4285V6.85707C19.7143 5.43691 18.563 4.28564 17.1428 4.28564ZM18 21.4285C18 21.9019 17.6162 22.2857 17.1428 22.2857H2.57143C2.09802 22.2857 1.71427 21.9019 1.71427 21.4285V6.85707C1.71427 6.38367 2.09802 5.99991 2.57143 5.99991H17.1428C17.6162 5.99991 18 6.38367 18 6.85707V21.4285Z" fill="#CACACA"/>
<path d="M21.4284 0H5.99989C4.57973 0 3.42847 1.15127 3.42847 2.57143C3.42847 3.04483 3.81222 3.42859 4.28562 3.42859C4.75903 3.42859 5.14273 3.04483 5.14273 2.57143C5.14273 2.09802 5.52649 1.71427 5.99989 1.71427H21.4284C21.9018 1.71427 22.2856 2.09802 22.2856 2.57143V18C22.2856 18.4734 21.9018 18.8571 21.4284 18.8571C20.955 18.8571 20.5713 19.2409 20.5713 19.7143C20.5713 20.1877 20.955 20.5715 21.4284 20.5715C22.8486 20.5715 23.9999 19.4202 23.9999 18V2.57143C23.9999 1.15127 22.8486 0 21.4284 0Z" fill="#CACACA"/>
</svg>
