<svg width="56" height="56" viewBox="0 0 56 56" fill="none" xmlns="http://www.w3.org/2000/svg">
<path d="M0 4C0 1.79086 1.79086 0 4 0H52C54.2091 0 56 1.79086 56 4V52C56 54.2091 54.2091 56 52 56H4C1.79086 56 0 54.2091 0 52V4Z" fill="#80CBA3"/>
<path d="M34.4001 17.3333H29.6001V18.4H34.4001V17.3333Z" fill="white"/>
<path d="M34.4001 20.5333H29.6001V21.6H34.4001V20.5333Z" fill="white"/>
<path d="M34.4001 23.7334H29.6001V24.8001H34.4001V23.7334Z" fill="white"/>
<path d="M34.4001 26.9333H29.6001V28H34.4001V26.9333Z" fill="white"/>
<path d="M34.4001 30.1334H29.6001V31.2H34.4001V30.1334Z" fill="white"/>
<path d="M34.4001 33.3333H29.6001V34.4H34.4001V33.3333Z" fill="white"/>
<path d="M34.4001 36.5333H29.6001V37.6H34.4001V36.5333Z" fill="white"/>
<path d="M34.4001 39.7334H29.6001V40.8001H34.4001V39.7334Z" fill="white"/>
<path d="M26.4001 17.3333H21.6001V18.4H26.4001V17.3333Z" fill="white"/>
<path d="M26.4001 20.5333H21.6001V21.6H26.4001V20.5333Z" fill="white"/>
<path d="M26.4001 23.7334H21.6001V24.8001H26.4001V23.7334Z" fill="white"/>
<path d="M26.4001 26.9333H21.6001V28H26.4001V26.9333Z" fill="white"/>
<path d="M26.4001 30.1334H21.6001V31.2H26.4001V30.1334Z" fill="white"/>
<path d="M26.4001 33.3333H21.6001V34.4H26.4001V33.3333Z" fill="white"/>
<path d="M26.4001 36.5333H21.6001V37.6H26.4001V36.5333Z" fill="white"/>
<path d="M26.4001 39.7334H21.6001V40.8001H26.4001V39.7334Z" fill="white"/>
<path d="M41.3333 42.9333V40.1723C42.3576 39.7402 42.9986 38.7097 42.9333 37.6C42.9333 36.1296 41.9765 34.9333 40.8 34.9333C39.6235 34.9333 38.6667 36.1296 38.6667 37.6C38.6014 38.7097 39.2424 39.7402 40.2667 40.1723V42.9333H36.5333V15.2H37.0667C37.3612 15.2 37.6 14.9612 37.6 14.6667V12.5333C37.6 12.2388 37.3612 12 37.0667 12H18.9333C18.6388 12 18.4 12.2388 18.4 12.5333V14.6667C18.4 14.9612 18.6388 15.2 18.9333 15.2H19.4667V42.9333H15.7333V40.1723C16.7576 39.7402 17.3986 38.7097 17.3333 37.6C17.3333 36.1296 16.3765 34.9333 15.2 34.9333C14.0235 34.9333 13.0667 36.1296 13.0667 37.6C13.0014 38.7097 13.6424 39.7402 14.6667 40.1723V42.9333H12V44H44V42.9333H41.3333ZM14.6667 38.9707C14.3085 38.6062 14.1157 38.1107 14.1333 37.6C14.1333 36.7328 14.6219 36 15.2 36C15.7781 36 16.2667 36.7328 16.2667 37.6C16.2839 38.1106 16.0912 38.606 15.7333 38.9707V38.1333H14.6667V38.9707ZM19.4667 13.0667H36.5333V14.1333H19.4667V13.0667ZM27.4667 42.9333H20.5333V15.2H27.4667V42.9333ZM35.4667 42.9333H28.5333V15.2H35.4667V42.9333ZM40.2667 38.9707C39.9085 38.6062 39.7157 38.1107 39.7333 37.6C39.7333 36.7328 40.2219 36 40.8 36C41.3781 36 41.8667 36.7328 41.8667 37.6C41.8839 38.1106 41.6912 38.606 41.3333 38.9707V38.1333H40.2667V38.9707Z" fill="white"/>
</svg>
