<svg width="112" height="56" viewBox="0 0 112 56" fill="none" xmlns="http://www.w3.org/2000/svg">
<path d="M23 16H19C18.4477 16 18 16.4477 18 17V25C18 25.5523 18.4477 26 19 26H23C24.1046 26 25 25.1046 25 24V18C25 16.8954 24.1046 16 23 16ZM23 24H20V18H23V24Z" fill="#CACACA"/>
<path d="M32 18V16H27C26.4477 16 26 16.4477 26 17V26H28V22H32V20H28V18H32Z" fill="#CACACA"/>
<path d="M2 28.9998V2.99977C2 2.44746 2.44769 1.99977 3 1.99977H18V5.99977C18 7.10433 18.8954 7.99977 20 7.99977H24V10.9998H26V6.99977C26.0016 6.73396 25.8972 6.47846 25.71 6.28977L19.71 0.289772C19.5213 0.102584 19.2658 -0.00172818 19 -0.000228184H3C1.34313 -0.000228184 0 1.34296 0 2.99977V28.9998C0 30.6566 1.34313 31.9998 3 31.9998H10V29.9998H3C2.44775 29.9998 2 29.5521 2 28.9998Z" fill="#CACACA"/>
<path d="M15 16H11C10.4477 16 10 16.4477 10 17V26H12V23H15C16.1046 23 17 22.1046 17 21V18C17 16.8954 16.1046 16 15 16ZM15 21H12V18H15V21Z" fill="#CACACA"/>
<path d="M1.05682 52H2.11364V48.0966H5.89773V47.1591H2.11364V44.2102H6.28977V43.2727H1.05682V52ZM7.96342 52H8.96911V45.4545H7.96342V52ZM8.47479 44.3636C8.86683 44.3636 9.1907 44.0568 9.1907 43.6818C9.1907 43.3068 8.86683 43 8.47479 43C8.08274 43 7.75888 43.3068 7.75888 43.6818C7.75888 44.0568 8.08274 44.3636 8.47479 44.3636ZM11.8168 43.2727H10.8111V52H11.8168V43.2727ZM16.4031 52.1364C17.7326 52.1364 18.7042 51.4716 19.011 50.483L18.0394 50.2102C17.7837 50.892 17.1914 51.233 16.4031 51.233C15.2227 51.233 14.4087 50.4702 14.3619 49.0682H19.1133V48.642C19.1133 46.2045 17.6644 45.3693 16.3008 45.3693C14.5281 45.3693 13.3519 46.767 13.3519 48.7784C13.3519 50.7898 14.511 52.1364 16.4031 52.1364ZM14.3619 48.1989C14.43 47.1804 15.1502 46.2727 16.3008 46.2727C17.3917 46.2727 18.0906 47.0909 18.0906 48.1989H14.3619ZM27.6999 43.2727H26.6602V50.142H26.5749L21.8022 43.2727H20.7795V52H21.8363V45.1477H21.9215L26.6772 52H27.6999V43.2727ZM31.6044 52.1534C32.7464 52.1534 33.343 51.5398 33.5476 51.1136H33.5987V52H34.6044V47.6875C34.6044 45.608 33.0192 45.3693 32.1839 45.3693C31.1953 45.3693 30.0703 45.7102 29.5589 46.9034L30.5135 47.2443C30.7351 46.767 31.2592 46.2557 32.218 46.2557C33.1428 46.2557 33.5987 46.7457 33.5987 47.5852V47.6193C33.5987 48.1051 33.1044 48.0625 31.9112 48.2159C30.6967 48.3736 29.3714 48.642 29.3714 50.142C29.3714 51.4205 30.3601 52.1534 31.6044 52.1534ZM31.7578 51.25C30.9567 51.25 30.3771 50.892 30.3771 50.1932C30.3771 49.4261 31.076 49.1875 31.8601 49.0852C32.2862 49.0341 33.4283 48.9148 33.5987 48.7102V49.6307C33.5987 50.4489 32.951 51.25 31.7578 51.25ZM36.44 52H37.4457V47.9091C37.4457 46.9503 38.1445 46.2727 38.9286 46.2727C39.6914 46.2727 40.2241 46.7713 40.2241 47.517V52H41.2468V47.7386C41.2468 46.8949 41.7752 46.2727 42.6957 46.2727C43.4116 46.2727 44.0252 46.652 44.0252 47.6193V52H45.0309V47.6193C45.0309 46.081 44.2042 45.3693 43.0366 45.3693C42.0991 45.3693 41.413 45.7997 41.0763 46.4773H41.0082C40.6843 45.7784 40.1133 45.3693 39.2525 45.3693C38.4002 45.3693 37.7695 45.7784 37.4968 46.4773H37.4116V45.4545H36.44V52ZM49.614 52.1364C50.9435 52.1364 51.9151 51.4716 52.2219 50.483L51.2504 50.2102C50.9947 50.892 50.4023 51.233 49.614 51.233C48.4336 51.233 47.6197 50.4702 47.5728 49.0682H52.3242V48.642C52.3242 46.2045 50.8754 45.3693 49.5117 45.3693C47.739 45.3693 46.5629 46.767 46.5629 48.7784C46.5629 50.7898 47.7219 52.1364 49.614 52.1364ZM47.5728 48.1989C47.641 47.1804 48.3612 46.2727 49.5117 46.2727C50.6026 46.2727 51.3015 47.0909 51.3015 48.1989H47.5728ZM54.587 52.0682C55.0089 52.0682 55.354 51.723 55.354 51.3011C55.354 50.8793 55.0089 50.5341 54.587 50.5341C54.1651 50.5341 53.82 50.8793 53.82 51.3011C53.82 51.723 54.1651 52.0682 54.587 52.0682ZM57.1587 54.4545H58.1644V50.9943H58.2496C58.4712 51.3523 58.8974 52.1364 60.1587 52.1364C61.7951 52.1364 62.9371 50.8239 62.9371 48.7443C62.9371 46.6818 61.7951 45.3693 60.1417 45.3693C58.8633 45.3693 58.4712 46.1534 58.2496 46.4943H58.1303V45.4545H57.1587V54.4545ZM58.1474 48.7273C58.1474 47.2614 58.7951 46.2727 60.0224 46.2727C61.3008 46.2727 61.9315 47.3466 61.9315 48.7273C61.9315 50.125 61.2837 51.233 60.0224 51.233C58.8121 51.233 58.1474 50.2102 58.1474 48.7273ZM66.9428 52.1364C68.2042 52.1364 68.6303 51.3523 68.8519 50.9943H68.9712V52H69.9428V43.2727H68.9371V46.4943H68.8519C68.6303 46.1534 68.2383 45.3693 66.9599 45.3693C65.3065 45.3693 64.1644 46.6818 64.1644 48.7443C64.1644 50.8239 65.3065 52.1364 66.9428 52.1364ZM67.0792 51.233C65.8178 51.233 65.1701 50.125 65.1701 48.7273C65.1701 47.3466 65.8008 46.2727 67.0792 46.2727C68.3065 46.2727 68.9542 47.2614 68.9542 48.7273C68.9542 50.2102 68.2894 51.233 67.0792 51.233ZM74.8391 45.4545H73.3732V44.7898C73.3732 44.142 73.646 43.8011 74.3107 43.8011C74.6005 43.8011 74.771 43.8693 74.8732 43.9034L75.163 43.0341C75.0096 42.9659 74.7028 42.8636 74.2085 42.8636C73.271 42.8636 72.3675 43.4261 72.3675 44.5511V45.4545H71.3107V46.3068H72.3675V52H73.3732V46.3068H74.8391V45.4545Z" fill="#939393"/>
</svg>
