<svg width="56" height="56" viewBox="0 0 56 56" fill="none" xmlns="http://www.w3.org/2000/svg">
<path d="M0 4C0 1.79086 1.79086 0 4 0H52C54.2091 0 56 1.79086 56 4V52C56 54.2091 54.2091 56 52 56H4C1.79086 56 0 54.2091 0 52V4Z" fill="#80CBA3"/>
<path d="M20.1653 12.9258C20.4022 12.9258 20.5773 12.9876 20.6906 13.1112C20.8141 13.2347 20.8759 13.4304 20.8759 13.6982V23.1062C20.8759 23.3843 20.8244 23.5851 20.7215 23.7087C20.6185 23.822 20.4434 23.8786 20.1962 23.8786C19.8769 23.8786 19.6298 23.7808 19.4547 23.5851C19.2899 23.3791 19.2075 23.0804 19.2075 22.6891V13.7445H14.2177V22.8745C14.2177 23.2349 14.1405 23.4924 13.986 23.6469C13.8315 23.8014 13.5895 23.8786 13.2599 23.8786C13.0231 23.8786 12.8428 23.8168 12.7192 23.6932C12.606 23.5696 12.5493 23.374 12.5493 23.1062V13.6982C12.5493 13.4201 12.6008 13.2244 12.7038 13.1112C12.8068 12.9876 12.9819 12.9258 13.229 12.9258H20.1653Z" fill="white"/>
<path d="M31.5856 12.9258C31.8224 12.9258 31.9975 12.9876 32.1108 13.1112C32.2344 13.2347 32.2962 13.4304 32.2962 13.6982V23.1062C32.2962 23.3843 32.2447 23.5851 32.1417 23.7087C32.0387 23.822 31.8636 23.8786 31.6165 23.8786C31.2972 23.8786 31.05 23.7808 30.875 23.5851C30.7102 23.3791 30.6278 23.0804 30.6278 22.6891V13.7445H25.638V22.8745C25.638 23.2349 25.5607 23.4924 25.4063 23.6469C25.2518 23.8014 25.0098 23.8786 24.6802 23.8786C24.4433 23.8786 24.2631 23.8168 24.1395 23.6932C24.0262 23.5696 23.9696 23.374 23.9696 23.1062V13.6982C23.9696 13.4201 24.0211 13.2244 24.1241 13.1112C24.227 12.9876 24.4021 12.9258 24.6493 12.9258H31.5856Z" fill="white"/>
<path d="M39.6999 22.9517C39.6999 23.3019 39.6227 23.5439 39.4682 23.6778C39.324 23.8117 39.082 23.8786 38.7421 23.8786C38.5052 23.8786 38.325 23.8168 38.2014 23.6932C38.0881 23.5696 38.0315 23.374 38.0315 23.1062V13.7445H35.7142V14.8414C35.7142 15.2018 35.637 15.4593 35.4825 15.6138C35.3383 15.7683 35.1169 15.8455 34.8182 15.8455C34.5917 15.8455 34.4217 15.7837 34.3085 15.6601C34.2055 15.5365 34.154 15.3409 34.154 15.0731V13.4974C34.154 13.2811 34.2261 13.1318 34.3702 13.0494C34.5247 12.967 34.7616 12.9258 35.0809 12.9258H42.6505C42.9698 12.9258 43.2015 12.967 43.3457 13.0494C43.5002 13.1318 43.5774 13.2811 43.5774 13.4974V15.0731C43.5774 15.3409 43.5208 15.5365 43.4075 15.6601C43.3045 15.7837 43.1397 15.8455 42.9131 15.8455C42.6145 15.8455 42.3879 15.7683 42.2334 15.6138C42.0892 15.4593 42.0171 15.2018 42.0171 14.8414V13.7445H39.6999V22.9517Z" fill="white"/>
<path d="M20.2288 32.7875C20.4657 32.7875 20.6407 32.8493 20.754 32.9729C20.8776 33.0964 20.9394 33.2921 20.9394 33.5599V42.9679C20.9394 43.246 20.8879 43.4468 20.7849 43.5704C20.6819 43.6837 20.5069 43.7403 20.2597 43.7403C19.9404 43.7403 19.6933 43.6425 19.5182 43.4468C19.3534 43.2408 19.271 42.9421 19.271 42.5508V33.6062H14.2812V42.7362C14.2812 43.0966 14.204 43.3541 14.0495 43.5086C13.895 43.6631 13.653 43.7403 13.3234 43.7403C13.0865 43.7403 12.9063 43.6785 12.7827 43.5549C12.6694 43.4313 12.6128 43.2357 12.6128 42.9679V33.5599C12.6128 33.2818 12.6643 33.0861 12.7673 32.9729C12.8703 32.8493 13.0453 32.7875 13.2925 32.7875H20.2288Z" fill="white"/>
<path d="M26.134 42.6435C26.4636 42.7568 26.7519 42.8392 26.9991 42.8906C27.2566 42.9318 27.5759 42.9524 27.9569 42.9524C28.5337 42.9524 29.0074 42.834 29.3782 42.5971C29.7592 42.3603 30.0373 42.0616 30.2124 41.7011C30.3977 41.3304 30.4904 40.9442 30.4904 40.5425C30.4904 39.9349 30.3102 39.4457 29.9497 39.0749C29.5893 38.6939 28.9508 38.5033 28.0342 38.5033H26.5975C26.5254 38.5033 26.4687 38.4621 26.4275 38.3798C26.3863 38.2974 26.3657 38.1995 26.3657 38.0862C26.3657 37.9729 26.3863 37.8751 26.4275 37.7927C26.4687 37.7 26.5254 37.6537 26.5975 37.6537H28.0496C29.4708 37.6537 30.1815 36.9379 30.1815 35.5064C30.1815 34.9296 29.9858 34.4662 29.5944 34.116C29.2031 33.7556 28.6675 33.5753 27.9878 33.5753C27.4008 33.5753 26.8549 33.632 26.3503 33.7453V34.6104C26.3503 34.9708 26.2731 35.2283 26.1186 35.3828C25.9744 35.5373 25.753 35.6145 25.4543 35.6145C25.2277 35.6145 25.0578 35.5527 24.9445 35.4291C24.8415 35.3055 24.79 35.1099 24.79 34.8421V33.9615C24.79 33.735 24.8312 33.5753 24.9136 33.4826C25.0063 33.3797 25.1762 33.287 25.4234 33.2046C26.34 32.9265 27.2978 32.7875 28.2968 32.7875C29.5326 32.7875 30.4389 33.0449 31.0157 33.5599C31.5924 34.0645 31.8808 34.7134 31.8808 35.5064C31.8808 36.1861 31.7005 36.7268 31.3401 37.1284C30.9899 37.5198 30.5316 37.803 29.9652 37.9781V38.0708C31.4791 38.3077 32.2361 39.1316 32.2361 40.5425C32.2361 41.078 32.0919 41.5878 31.8035 42.0719C31.5152 42.5559 31.0569 42.9576 30.4286 43.2769C29.8004 43.5858 29.0022 43.7403 28.0342 43.7403C27.5192 43.7403 27.0094 43.6991 26.5048 43.6167C26.0001 43.524 25.5573 43.4004 25.1762 43.246C24.9394 43.143 24.7797 43.0503 24.6973 42.9679C24.6149 42.8752 24.5737 42.7207 24.5737 42.5044V41.5775C24.5737 41.0832 24.7952 40.836 25.238 40.836C25.5367 40.836 25.7581 40.9133 25.9023 41.0678C26.0568 41.2119 26.134 41.4591 26.134 41.8093V42.6435Z" fill="white"/>
<path d="M36.8042 42.6435C37.1338 42.7568 37.4221 42.8392 37.6693 42.8906C37.9268 42.9318 38.246 42.9524 38.6271 42.9524C39.2038 42.9524 39.6776 42.834 40.0483 42.5971C40.4294 42.3603 40.7075 42.0616 40.8825 41.7011C41.0679 41.3304 41.1606 40.9442 41.1606 40.5425C41.1606 39.9349 40.9804 39.4457 40.6199 39.0749C40.2595 38.6939 39.6209 38.5033 38.7043 38.5033H37.2676C37.1955 38.5033 37.1389 38.4621 37.0977 38.3798C37.0565 38.2974 37.0359 38.1995 37.0359 38.0862C37.0359 37.9729 37.0565 37.8751 37.0977 37.7927C37.1389 37.7 37.1955 37.6537 37.2676 37.6537H38.7198C40.141 37.6537 40.8516 36.9379 40.8516 35.5064C40.8516 34.9296 40.656 34.4662 40.2646 34.116C39.8732 33.7556 39.3377 33.5753 38.658 33.5753C38.0709 33.5753 37.5251 33.632 37.0205 33.7453V34.6104C37.0205 34.9708 36.9432 35.2283 36.7887 35.3828C36.6446 35.5373 36.4231 35.6145 36.1245 35.6145C35.8979 35.6145 35.728 35.5527 35.6147 35.4291C35.5117 35.3055 35.4602 35.1099 35.4602 34.8421V33.9615C35.4602 33.735 35.5014 33.5753 35.5838 33.4826C35.6765 33.3797 35.8464 33.287 36.0936 33.2046C37.0102 32.9265 37.968 32.7875 38.9669 32.7875C40.2028 32.7875 41.1091 33.0449 41.6858 33.5599C42.2626 34.0645 42.5509 34.7134 42.5509 35.5064C42.5509 36.1861 42.3707 36.7268 42.0103 37.1284C41.6601 37.5198 41.2018 37.803 40.6354 37.9781V38.0708C42.1493 38.3077 42.9063 39.1316 42.9063 40.5425C42.9063 41.078 42.7621 41.5878 42.4737 42.0719C42.1853 42.5559 41.727 42.9576 41.0988 43.2769C40.4706 43.5858 39.6724 43.7403 38.7043 43.7403C38.1894 43.7403 37.6796 43.6991 37.1749 43.6167C36.6703 43.524 36.2275 43.4004 35.8464 43.246C35.6095 43.143 35.4499 43.0503 35.3675 42.9679C35.2851 42.8752 35.2439 42.7207 35.2439 42.5044V41.5775C35.2439 41.0832 35.4653 40.836 35.9082 40.836C36.2069 40.836 36.4283 40.9133 36.5725 41.0678C36.7269 41.2119 36.8042 41.4591 36.8042 41.8093V42.6435Z" fill="white"/>
<path fill-rule="evenodd" clip-rule="evenodd" d="M44 28.2925H12V27.1891H44V28.2925Z" fill="white"/>
</svg>
