<svg width="32" height="32" viewBox="0 0 32 32" fill="none" xmlns="http://www.w3.org/2000/svg">
<path d="M5 28.9998V2.99977C5 2.44746 5.44769 1.99977 6 1.99977H21V5.99977C21 7.10433 21.8954 7.99977 23 7.99977H27V10.9998H29V6.99977C29.0016 6.73396 28.8972 6.47846 28.71 6.28977L22.71 0.289772C22.5213 0.102584 22.2658 -0.00172818 22 -0.000228184H6C4.34313 -0.000228184 3 1.34296 3 2.99977V28.9998C3 30.6566 4.34313 31.9998 6 31.9998H18V29.9998H6C5.44775 29.9998 5 29.5521 5 28.9998Z" fill="#FF4242"/>
<path d="M22.8819 17.322C22.4514 16.8927 21.7534 16.8927 21.3229 17.322C20.8924 17.7514 20.8924 18.4476 21.3229 18.877L24.4541 22L21.323 25.123C20.8924 25.5524 20.8924 26.2486 21.323 26.678C21.7535 27.1073 22.4515 27.1073 22.882 26.678L26.0131 23.555L29.118 26.6518C29.5485 27.0812 30.2465 27.0812 30.677 26.6518C31.1076 26.2224 31.1076 25.5262 30.677 25.0969L27.5721 22L30.6771 18.9031C31.1076 18.4738 31.1076 17.7776 30.6771 17.3482C30.2466 16.9188 29.5486 16.9188 29.1181 17.3482L26.0131 20.4451L22.8819 17.322Z" fill="#FF4242"/>
<rect x="7" y="10" width="12" height="2" rx="1" fill="#FF4242"/>
<rect x="7" y="14" width="7.16693" height="2" rx="1" fill="#FF4242"/>
</svg>
