<svg width="32" height="32" viewBox="0 0 32 32" fill="none" xmlns="http://www.w3.org/2000/svg">
<path d="M5 28.9998V2.99977C5 2.44746 5.44769 1.99977 6 1.99977H21V5.99977C21 7.10433 21.8954 7.99977 23 7.99977H27V10.9998H29V6.99977C29.0016 6.73396 28.8972 6.47846 28.71 6.28977L22.71 0.289772C22.5213 0.102584 22.2658 -0.00172818 22 -0.000228184H6C4.34313 -0.000228184 3 1.34296 3 2.99977V28.9998C3 30.6566 4.34313 31.9998 6 31.9998H18V29.9998H6C5.44775 29.9998 5 29.5521 5 28.9998Z" fill="#80CBA3"/>
<path d="M19 21L23 25L30 17" stroke="#80CBA3" stroke-width="2.75" stroke-linecap="round" stroke-linejoin="round"/>
<rect x="7" y="10" width="12" height="2" rx="1" fill="#80CBA3"/>
<rect x="7" y="14" width="7.16693" height="2" rx="1" fill="#80CBA3"/>
</svg>
