<svg width="32" height="32" viewBox="0 0 32 32" fill="none" xmlns="http://www.w3.org/2000/svg">
<path d="M5 28.9998V2.99977C5 2.44746 5.44769 1.99977 6 1.99977H21V5.99977C21 7.10433 21.8954 7.99977 23 7.99977H27V10.9998H29V6.99977C29.0016 6.73396 28.8972 6.47846 28.71 6.28977L22.71 0.289772C22.5213 0.102584 22.2658 -0.00172818 22 -0.000228184H6C4.34313 -0.000228184 3 1.34296 3 2.99977V28.9998C3 30.6566 4.34313 31.9998 6 31.9998H18V29.9998H6C5.44775 29.9998 5 29.5521 5 28.9998Z" fill="#FF810D"/>
<path d="M28.1376 23.0596L26.4644 21.8047V19.2486C26.4644 18.9916 26.2567 18.7838 25.9997 18.7838C25.7427 18.7838 25.5349 18.9916 25.5349 19.2486V22.0371C25.5349 22.1835 25.6037 22.3216 25.7208 22.4089L27.5798 23.8032C27.6635 23.866 27.7611 23.8962 27.8582 23.8962C28 23.8962 28.1394 23.8325 28.2305 23.7098C28.3848 23.5048 28.343 23.2134 28.1376 23.0596Z" fill="#FF810D"/>
<path d="M26 16C22.6914 16 20 18.6914 20 22C20 25.3086 22.6914 28 26 28C29.3086 28 32 25.3086 32 22C32 18.6914 29.3086 16 26 16ZM26 27.0705C23.2045 27.0705 20.9295 24.7955 20.9295 22C20.9295 19.2045 23.2045 16.9295 26 16.9295C28.796 16.9295 31.0705 19.2045 31.0705 22C31.0705 24.7955 28.7955 27.0705 26 27.0705Z" fill="#FF810D"/>
<rect x="7" y="10" width="12" height="2" rx="1" fill="#FF810D"/>
<rect x="7" y="14" width="7.16693" height="2" rx="1" fill="#FF810D"/>
</svg>
