<svg width="48" height="48" viewBox="0 0 48 48" fill="none" xmlns="http://www.w3.org/2000/svg">
<g clip-path="url(#clip0)">
<path d="M35.7068 34.293L28.8818 27.4681C30.2038 25.8351 30.9998 23.7601 30.9998 21.5002C30.9998 16.2622 26.7378 12.0002 21.4999 12.0002C16.2619 12.0002 12 16.2622 12 21.5001C12 26.7381 16.262 31 21.4999 31C23.7599 31 25.8349 30.2041 27.4678 28.8821L34.2928 35.707C34.4878 35.902 34.7438 36 34.9998 36C35.2558 36 35.5118 35.902 35.7068 35.707C36.0978 35.316 36.0978 34.684 35.7068 34.293ZM21.4999 29C17.3639 29 14 25.6361 14 21.5001C14 17.3641 17.3639 14.0002 21.4999 14.0002C25.6359 14.0002 28.9998 17.3641 28.9998 21.5001C28.9998 25.6361 25.6359 29 21.4999 29Z" fill="#DBDFE6"/>
</g>
<defs>
<clipPath id="clip0">
<rect width="24" height="24" fill="white" transform="translate(12 12)"/>
</clipPath>
</defs>
</svg>
