<svg width="56" height="56" viewBox="0 0 56 56" fill="none" xmlns="http://www.w3.org/2000/svg">
<path d="M0 4C0 1.79086 1.79086 0 4 0H52C54.2091 0 56 1.79086 56 4V52C56 54.2091 54.2091 56 52 56H4C1.79086 56 0 54.2091 0 52V4Z" fill="#80CBA3"/>
<path d="M28 32.0177C25.7947 32.0177 24 33.8117 24 36.0177C24 38.2237 25.7947 40.0177 28 40.0177C30.2053 40.0177 32 38.2237 32 36.0177C32 33.8117 30.2053 32.0177 28 32.0177ZM28 38.6843C26.5293 38.6843 25.3334 37.4883 25.3334 36.0177C25.3334 34.5471 26.5293 33.3511 28 33.3511C29.4707 33.3511 30.6666 34.5471 30.6666 36.0177C30.6666 37.4883 29.4707 38.6843 28 38.6843Z" fill="white"/>
<path d="M30.668 37.3509H30.6513C30.4427 37.3509 30.2453 37.4489 30.1193 37.6156C29.6066 38.2949 28.834 38.6842 28 38.6842C27.166 38.6842 26.3934 38.2949 25.8807 37.6155C25.7547 37.4489 25.5407 37.3508 25.332 37.3508C23.4947 37.3509 22 38.8455 22 40.6829V43.3508C22 43.7188 22.2987 44.0175 22.6666 44.0175H33.3333C33.7012 44.0175 33.9999 43.7188 33.9999 43.3508V40.6829C34 38.8455 32.5053 37.3509 30.668 37.3509ZM32.6666 42.6842H23.3334V40.6829C23.3334 39.6795 24.076 38.8468 25.0534 38.7055C25.812 39.5436 26.8673 40.0175 28 40.0175C29.1334 40.0175 30.1893 39.5429 30.948 38.7036C31.918 38.8402 32.6666 39.6762 32.6666 40.6829V42.6842Z" fill="white"/>
<path d="M14 32.0175C11.7947 32.0175 10 33.8114 10 36.0175C10 38.2235 11.7947 40.0175 14 40.0175C16.2053 40.0175 18 38.2235 18 36.0175C18 33.8114 16.2053 32.0175 14 32.0175ZM14 38.6841C12.5293 38.6841 11.3334 37.4881 11.3334 36.0175C11.3334 34.5468 12.5294 33.3508 14 33.3508C15.4706 33.3508 16.6666 34.5468 16.6666 36.0175C16.6666 37.4882 15.4707 38.6841 14 38.6841Z" fill="white"/>
<path d="M16.668 37.3508H16.6514C16.4427 37.3508 16.2454 37.4488 16.1194 37.6155C15.6067 38.2948 14.8341 38.6842 14 38.6842C13.166 38.6842 12.3934 38.2949 11.8807 37.6155C11.7547 37.4489 11.5407 37.3508 11.332 37.3508C9.49469 37.3508 8 38.8455 8 40.6829V43.3508C8.00008 43.7188 8.29875 44.0175 8.66672 44.0175H19.3334C19.7013 44.0175 20 43.7188 20 43.3508V40.6829C20.0001 38.8454 18.5054 37.3508 16.668 37.3508ZM18.6667 42.6841H9.33344V40.6828C9.33344 39.6794 10.0761 38.8468 11.0534 38.7054C11.8121 39.5435 12.8674 40.0175 14.0001 40.0175C15.1334 40.0175 16.1894 39.5428 16.948 38.7035C17.918 38.8401 18.6667 39.6761 18.6667 40.6828V42.6841Z" fill="white"/>
<path d="M42 32.0175C39.7947 32.0175 38 33.8114 38 36.0175C38 38.2235 39.7947 40.0175 42 40.0175C44.2053 40.0175 46 38.2235 46 36.0175C46 33.8114 44.2053 32.0175 42 32.0175ZM42 38.6841C40.5293 38.6841 39.3334 37.4881 39.3334 36.0175C39.3334 34.5468 40.5294 33.3508 42 33.3508C43.4707 33.3508 44.6666 34.5468 44.6666 36.0175C44.6666 37.4882 43.4707 38.6841 42 38.6841Z" fill="white"/>
<path d="M44.668 37.3508H44.6514C44.4427 37.3508 44.2454 37.4488 44.1194 37.6155C43.6067 38.2948 42.8341 38.6842 42 38.6842C41.166 38.6842 40.3934 38.2949 39.8807 37.6155C39.7547 37.4489 39.5407 37.3508 39.332 37.3508C37.4947 37.3508 36 38.8455 36 40.6829V43.3508C36 43.7188 36.2987 44.0175 36.6666 44.0175H47.3333C47.7013 44.0175 47.9999 43.7188 47.9999 43.3508V40.6829C48.0001 38.8454 46.5054 37.3508 44.668 37.3508ZM46.6667 42.6841H37.3334V40.6828C37.3334 39.6794 38.0761 38.8468 39.0534 38.7054C39.8121 39.5434 40.8674 40.0175 42.0001 40.0175C43.1334 40.0175 44.1894 39.5428 44.948 38.7035C45.918 38.8401 46.6667 39.6761 46.6667 40.6828V42.6841Z" fill="white"/>
<path d="M37.3313 15.9825H25.3347C24.5987 15.9825 24 16.5812 24 17.3172V25.3146C24 26.0506 24.5987 26.6493 25.3353 26.6493H31.724L35.5287 30.454C35.656 30.5813 35.8266 30.6493 36 30.6493C36.086 30.6493 36.1727 30.6326 36.2553 30.5986C36.504 30.4952 36.6667 30.2519 36.6667 29.9825V26.6492H37.332C38.068 26.6492 38.6667 26.0505 38.6667 25.3139V17.3172C38.6667 16.5812 38.068 15.9825 37.3313 15.9825ZM37.332 25.3158H36C35.632 25.3158 35.3334 25.6145 35.3334 25.9825V28.3732L32.4713 25.5111C32.3466 25.3858 32.1766 25.3158 32 25.3158L25.3334 25.3138V17.3172L25.3347 17.3158L37.3334 17.3172L37.332 25.3158Z" fill="white"/>
<path d="M29.9978 11.9825H18.0012C17.2652 11.9825 16.6665 12.5812 16.6665 13.3172V21.3146C16.6665 22.0506 17.2652 22.6493 18.0012 22.6493H18.6665V25.9826C18.6665 26.2519 18.8292 26.4953 19.0785 26.5986C19.1606 26.6326 19.2472 26.6494 19.3332 26.6494C19.5066 26.6494 19.6772 26.5814 19.8045 26.454L23.6092 22.6494H24.6666C25.0345 22.6494 25.3332 22.3507 25.3332 21.9827V17.3172L30.6666 17.3158C31.0345 17.3158 31.3332 17.0172 31.3332 16.6492V13.3172C31.3332 12.5812 30.7345 11.9825 29.9978 11.9825ZM29.9999 15.9825H25.3345C24.5985 15.9825 23.9999 16.5812 23.9999 17.3172V21.3159H23.3332C23.1566 21.3159 22.9866 21.3859 22.8619 21.5112L19.9999 24.3732V21.9825C19.9999 21.6145 19.7012 21.3158 19.3332 21.3158L17.9999 21.3145L18.0012 13.3158L29.9999 13.3172V15.9825Z" fill="white"/>
<path d="M31.3332 19.3158H27.3331C26.9652 19.3158 26.6665 19.6145 26.6665 19.9824C26.6665 20.3504 26.9652 20.6491 27.3331 20.6491H31.3332C31.7011 20.6491 31.9998 20.3504 31.9998 19.9824C31.9998 19.6145 31.7011 19.3158 31.3332 19.3158Z" fill="white"/>
<path d="M35.3335 19.3158H34.0001C33.6322 19.3158 33.3335 19.6145 33.3335 19.9824C33.3335 20.3504 33.6322 20.6491 34.0001 20.6491H35.3335C35.7015 20.6491 36.0001 20.3504 36.0001 19.9824C36.0001 19.6145 35.7015 19.3158 35.3335 19.3158Z" fill="white"/>
<path d="M35.3336 21.9825H31.3336C30.9657 21.9825 30.667 22.2812 30.667 22.6492C30.667 23.0172 30.9657 23.3158 31.3336 23.3158H35.3336C35.7016 23.3158 36.0003 23.0172 36.0003 22.6492C36.0003 22.2812 35.7016 21.9825 35.3336 21.9825Z" fill="white"/>
<path d="M28.6665 21.9825H27.3331C26.9652 21.9825 26.6665 22.2812 26.6665 22.6492C26.6665 23.0172 26.9652 23.3158 27.3331 23.3158H28.6665C29.0345 23.3158 29.3332 23.0172 29.3332 22.6492C29.3332 22.2812 29.0346 21.9825 28.6665 21.9825Z" fill="white"/>
</svg>
