<svg width="64" height="64" viewBox="0 0 64 64" fill="none" xmlns="http://www.w3.org/2000/svg">
<g clip-path="url(#clip0)">
<path d="M14.5 44C19.073 49.3298 24.6679 51.6756 32 51.6756C39.3321 51.6756 44.927 49.3298 49.5 44" stroke="#519F72" stroke-width="2"/>
<path d="M59.7333 26.1333H58.6667C58.6597 24.7376 57.7489 23.5074 56.416 23.0933C55.1831 10.5325 44.6212 0.956543 32 0.956543C19.3788 0.956543 8.8169 10.5325 7.584 23.0933C6.25108 23.5074 5.34029 24.7376 5.33333 26.1333H4.26667C1.91025 26.1333 0 28.0436 0 30.4V38.9333C0 41.2898 1.91025 43.2 4.26667 43.2H5.33333C5.33333 44.9673 6.76602 46.4 8.53333 46.4H9.6V50.6667C9.6 55.9686 13.8981 60.2667 19.2 60.2667H22.5493C23.0344 62.1455 24.7262 63.4604 26.6667 63.4667H37.3333C39.6898 63.4667 41.6 61.5564 41.6 59.2C41.6 56.8436 39.6898 54.9333 37.3333 54.9333H26.6667C24.7262 54.9396 23.0344 56.2545 22.5493 58.1333H19.2C15.0763 58.1333 11.7333 54.7904 11.7333 50.6667V46.4H12.8C14.5673 46.4 16 44.9673 16 43.2V26.1333C15.9987 24.8285 15.2052 23.6551 13.9947 23.168C15.0838 14.05 22.8171 7.18543 32 7.18543C41.1829 7.18543 48.9162 14.05 50.0053 23.168C48.7948 23.6551 48.0014 24.8285 48 26.1333V43.2C48 44.9673 49.4327 46.4 51.2 46.4H55.4667C57.234 46.4 58.6667 44.9673 58.6667 43.2H59.7333C62.0898 43.2 64 41.2898 64 38.9333V30.4C64 28.0436 62.0898 26.1333 59.7333 26.1333ZM26.6667 57.0667H37.3333C38.5115 57.0667 39.4667 58.0218 39.4667 59.2C39.4667 60.3782 38.5115 61.3333 37.3333 61.3333H26.6667C25.4885 61.3333 24.5333 60.3782 24.5333 59.2C24.5333 58.0218 25.4885 57.0667 26.6667 57.0667ZM4.26667 41.0667C3.08846 41.0667 2.13333 40.1115 2.13333 38.9333V30.4C2.13333 29.2218 3.08846 28.2667 4.26667 28.2667H5.33333V41.0667H4.26667ZM13.8667 43.2C13.8667 43.7891 13.3891 44.2667 12.8 44.2667H8.53333C7.94423 44.2667 7.46667 43.7891 7.46667 43.2V26.1333C7.46667 25.5442 7.94423 25.0667 8.53333 25.0667H12.8C13.3891 25.0667 13.8667 25.5442 13.8667 26.1333V43.2ZM32 4.80001C21.6428 4.81333 12.9622 12.6337 11.872 22.9333H9.73867C11.0061 11.5958 20.5918 3.02192 32 3.02192C43.4082 3.02192 52.9939 11.5958 54.2613 22.9333H52.128C51.0378 12.6337 42.3572 4.81333 32 4.80001ZM56.5333 43.2C56.5333 43.7891 56.0558 44.2667 55.4667 44.2667H51.2C50.6109 44.2667 50.1333 43.7891 50.1333 43.2V26.1333C50.1333 25.5442 50.6109 25.0667 51.2 25.0667H55.4667C56.0558 25.0667 56.5333 25.5442 56.5333 26.1333V43.2ZM61.8667 38.9333C61.8667 40.1115 60.9115 41.0667 59.7333 41.0667H58.6667V28.2667H59.7333C60.9115 28.2667 61.8667 29.2218 61.8667 30.4V38.9333Z" fill="#519F72"/>
<path d="M25.8161 38L27.6186 32.8033H35.2891L37.082 38H40.2269L33.1605 18.3636H29.7376L22.6712 38H25.8161ZM28.4815 30.3104L31.3771 21.9304H31.5305L34.4261 30.3104H28.4815Z" fill="#519F72"/>
</g>
<defs>
<clipPath id="clip0">
<rect width="64" height="64" fill="white"/>
</clipPath>
</defs>
</svg>
