<svg width="33" height="33" viewBox="0 0 33 33" fill="none" xmlns="http://www.w3.org/2000/svg">
<path fill-rule="evenodd" clip-rule="evenodd" d="M27.0669 32.4998H27.3806H29.0669V7.49977C29.0685 7.23396 28.9641 6.97846 28.7769 6.78977L22.7769 0.789772C22.5882 0.602584 22.3327 0.498272 22.0669 0.499772H6.0669C4.41002 0.499772 3.06689 1.84296 3.06689 3.49977V29.4998C3.06689 31.1566 4.41002 32.4998 6.0669 32.4998H27.0669ZM5.06689 29.4998V3.49977C5.06689 2.94746 5.51458 2.49977 6.0669 2.49977H21.0669L27.0669 8.49977V30.4998H6.0669C5.51464 30.4998 5.06689 30.0521 5.06689 29.4998Z" fill="#01F7F7"/>
<path d="M9.74883 11.2503L15.1847 4.99067C15.6721 4.50138 16.4622 4.50138 16.9496 4.99067L22.3855 11.2503C22.8728 11.7395 22.8728 12.5328 22.3855 13.0221C21.8981 13.5114 21.1079 13.5114 20.6205 13.0221L17.3152 8.90136L17.3152 21.7885C17.3152 22.4777 16.7564 23.0365 16.0672 23.0365C15.3779 23.0365 14.8191 22.4777 14.8191 21.7885L14.8191 8.90136L11.5138 13.0221C11.0264 13.5114 10.2362 13.5114 9.74883 13.0221C9.26146 12.5328 9.26146 11.7395 9.74883 11.2503Z" fill="#01F7F7"/>
<rect x="7.146" y="24.5422" width="17.89" height="2.63622" rx="1.31811" fill="#01F7F7"/>
</svg>
