<svg width="33" height="33" viewBox="0 0 33 33" fill="none" xmlns="http://www.w3.org/2000/svg">
<path fill-rule="evenodd" clip-rule="evenodd" d="M27.0449 32.4998H27.3586H29.0449V7.49977C29.0465 7.23396 28.9421 6.97846 28.7549 6.78977L22.7549 0.789772C22.5662 0.602584 22.3107 0.498272 22.0449 0.499772H6.04492C4.38805 0.499772 3.04492 1.84296 3.04492 3.49977V29.4998C3.04492 31.1566 4.38805 32.4998 6.04492 32.4998H27.0449ZM5.04492 29.4998V3.49977C5.04492 2.94746 5.49261 2.49977 6.04492 2.49977H21.0449L27.0449 8.49977V30.4998H6.04492C5.49267 30.4998 5.04492 30.0521 5.04492 29.4998Z" fill="#FF4242"/>
<path d="M9.72686 11.2503L15.1627 4.99067C15.6501 4.50138 16.4403 4.50138 16.9277 4.99067L22.3635 11.2503C22.8509 11.7395 22.8509 12.5328 22.3635 13.0221C21.8761 13.5114 21.0859 13.5114 20.5985 13.0221L17.2932 8.90136L17.2932 21.7885C17.2932 22.4777 16.7344 23.0365 16.0452 23.0365C15.3559 23.0365 14.7972 22.4777 14.7972 21.7885L14.7972 8.90136L11.4918 13.0221C11.0044 13.5114 10.2142 13.5114 9.72686 13.0221C9.23948 12.5328 9.23948 11.7395 9.72686 11.2503Z" fill="#FF4242"/>
<rect x="7.12402" y="24.5422" width="17.89" height="2.63622" rx="1.31811" fill="#FF4242"/>
</svg>
