<svg width="33" height="32" viewBox="0 0 33 32" fill="none" xmlns="http://www.w3.org/2000/svg">
<path fill-rule="evenodd" clip-rule="evenodd" d="M27.022 31.9998H27.3357H29.022V6.99977C29.0235 6.73396 28.9192 6.47846 28.732 6.28977L22.732 0.289772C22.5433 0.102584 22.2878 -0.00172818 22.022 -0.000228184H6.02197C4.3651 -0.000228184 3.02197 1.34296 3.02197 2.99977V28.9998C3.02197 30.6566 4.3651 31.9998 6.02197 31.9998H27.022ZM5.02197 28.9998V2.99977C5.02197 2.44746 5.46966 1.99977 6.02197 1.99977H21.022L27.022 7.99977V29.9998H6.02197C5.46972 29.9998 5.02197 29.5521 5.02197 28.9998Z" fill="#17B7BB"/>
<path d="M9.70391 10.7503L15.1398 4.49067C15.6271 4.00138 16.4173 4.00138 16.9047 4.49067L22.3405 10.7503C22.8279 11.2395 22.8279 12.0328 22.3405 12.5221C21.8532 13.0114 21.063 13.0114 20.5756 12.5221L17.2702 8.40136L17.2702 21.2885C17.2702 21.9777 16.7115 22.5365 16.0222 22.5365C15.333 22.5365 14.7742 21.9777 14.7742 21.2885L14.7742 8.40136L11.4689 12.5221C10.9815 13.0114 10.1913 13.0114 9.70391 12.5221C9.21653 12.0328 9.21653 11.2395 9.70391 10.7503Z" fill="#17B7BB"/>
<rect x="7.10107" y="24.0422" width="17.89" height="2.63622" rx="1.31811" fill="#17B7BB"/>
</svg>
