<svg width="32" height="33" viewBox="0 0 32 33" fill="none" xmlns="http://www.w3.org/2000/svg">
<path fill-rule="evenodd" clip-rule="evenodd" d="M27 32.4998H27.3137H29V7.49977C29.0016 7.23396 28.8972 6.97846 28.71 6.78977L22.71 0.789772C22.5213 0.602584 22.2658 0.498272 22 0.499772H6C4.34313 0.499772 3 1.84296 3 3.49977V29.4998C3 31.1566 4.34313 32.4998 6 32.4998H27ZM5 29.4998V3.49977C5 2.94746 5.44769 2.49977 6 2.49977H21L27 8.49977V30.4998H6C5.44775 30.4998 5 30.0521 5 29.4998Z" fill="#519F72"/>
<path d="M9.68194 11.2503L15.1178 4.99067C15.6052 4.50138 16.3954 4.50138 16.8827 4.99067L22.3186 11.2503C22.806 11.7395 22.806 12.5328 22.3186 13.0221C21.8312 13.5114 21.041 13.5114 20.5536 13.0221L17.2483 8.90136L17.2483 21.7885C17.2483 22.4777 16.6895 23.0365 16.0003 23.0365C15.311 23.0365 14.7523 22.4777 14.7523 21.7885L14.7522 8.90136L11.4469 13.0221C10.9595 13.5114 10.1693 13.5114 9.68194 13.0221C9.19456 12.5328 9.19456 11.7395 9.68194 11.2503Z" fill="#519F72"/>
<rect x="7.0791" y="24.5422" width="17.89" height="2.63622" rx="1.31811" fill="#519F72"/>
</svg>
