<svg width="33" height="33" viewBox="0 0 33 33" fill="none" xmlns="http://www.w3.org/2000/svg">
<path fill-rule="evenodd" clip-rule="evenodd" d="M27.0225 32.4998H27.3362H29.0225V7.49977C29.024 7.23396 28.9197 6.97846 28.7325 6.78977L22.7325 0.789772C22.5438 0.602584 22.2883 0.498272 22.0225 0.499772H6.02246C4.36559 0.499772 3.02246 1.84296 3.02246 3.49977V29.4998C3.02246 31.1566 4.36559 32.4998 6.02246 32.4998H27.0225ZM5.02246 29.4998V3.49977C5.02246 2.94746 5.47015 2.49977 6.02246 2.49977H21.0225L27.0225 8.49977V30.4998H6.02246C5.47021 30.4998 5.02246 30.0521 5.02246 29.4998Z" fill="#727272"/>
<path d="M9.7044 11.2503L15.1402 4.99067C15.6276 4.50138 16.4178 4.50138 16.9052 4.99067L22.341 11.2503C22.8284 11.7395 22.8284 12.5328 22.341 13.0221C21.8537 13.5114 21.0635 13.5114 20.5761 13.0221L17.2707 8.90136L17.2707 21.7885C17.2707 22.4777 16.712 23.0365 16.0227 23.0365C15.3335 23.0365 14.7747 22.4777 14.7747 21.7885L14.7747 8.90136L11.4694 13.0221C10.982 13.5114 10.1918 13.5114 9.7044 13.0221C9.21702 12.5328 9.21702 11.7395 9.7044 11.2503Z" fill="#727272"/>
<rect x="7.10156" y="24.5422" width="17.89" height="2.63622" rx="1.31811" fill="#727272"/>
</svg>
