<svg width="24" height="24" viewBox="0 0 24 24" fill="none" xmlns="http://www.w3.org/2000/svg">
<g clip-path="url(#clip0)">
<path d="M17.8912 4.31012H6.05125C5.6366 4.3164 5.30128 4.64969 5.29248 5.06427V6.34089H18.6463V5.06427C18.6393 4.65037 18.3052 4.31658 17.8912 4.31012Z" fill="#FF4242"/>
<path d="M18.4614 20.864V23.7277L23.9999 23.7022V20.864H18.4614Z" fill="#FF4242"/>
<path d="M6.46143 7.32556V23.7833L17.4768 23.7323V7.32556H6.46143ZM10.4614 21.9102H8.55374V20.9256H10.4614V21.9102ZM10.4614 19.0179H8.55374V18.0333H10.4614V19.0179ZM10.4614 16.1256H8.55374V15.1409H10.4614V16.1256ZM10.4614 13.2333H8.55374V12.2486H10.4614V13.2333ZM10.4614 10.3409H8.55374V9.35633H10.4614V10.3409ZM15.1999 22.0333H13.3537V21.0486H15.1999V22.0333ZM15.1999 19.0794H13.3537V18.0948H15.1999V19.0794ZM15.1999 16.1256H13.3537V15.1409H15.1999V16.1256ZM15.1999 13.2333H13.3537V12.2486H15.1999V13.2333ZM15.1999 10.3409H13.3537V9.35633H15.1999V10.3409Z" fill="#FF4242"/>
<path d="M23.9999 14.8948H18.4614V16.8024H23.9999V14.8948Z" fill="#FF4242"/>
<path d="M0.745846 9.54092C0.344923 9.53003 0.0111385 9.84615 0.000184615 10.247C0.000123077 10.2502 6.15385e-05 10.2533 0 10.2565V23.8129L5.47692 23.7878V9.54092H0.745846ZM3.13846 22.0332H2.15385V19.9409H3.13846V22.0332ZM3.13846 17.7255H2.15385V15.5717H3.13846V17.7255ZM3.13846 13.4178H2.15385V11.264H3.13846V13.4178Z" fill="#FF4242"/>
<path d="M23.9999 17.787H18.4614V19.8794H23.9999V17.787Z" fill="#FF4242"/>
<path d="M23.254 0.187073H13.5477C13.1377 0.187996 12.8045 0.518211 12.7998 0.92818V2.40246H23.9998V0.92818C23.9961 0.51858 23.6636 0.18818 23.254 0.187073Z" fill="#FF4242"/>
<path d="M23.9999 12.0025H18.4614V13.9102H23.9999V12.0025Z" fill="#FF4242"/>
<path d="M19.6307 6.27936V6.80551C19.6251 7.08607 19.4021 7.31388 19.1217 7.32552H18.4614V8.18706H23.9999V6.27936H19.6307Z" fill="#FF4242"/>
<path d="M18.2388 3.38708C19.0228 3.51016 19.6307 4.23324 19.6307 5.06432V5.29478H23.9999V3.38708H18.2388Z" fill="#FF4242"/>
<path d="M23.9999 9.17169H18.4614V11.0178H23.9999V9.17169Z" fill="#FF4242"/>
</g>
<defs>
<clipPath id="clip0">
<rect width="24" height="24" fill="white"/>
</clipPath>
</defs>
</svg>
