<svg width="64" height="64" viewBox="0 0 64 64" fill="none" xmlns="http://www.w3.org/2000/svg">
<path d="M58.6667 61.8667V56.3435C60.7151 55.4797 61.9971 53.4192 61.8667 51.2C61.8667 48.2592 59.9531 45.8667 57.6 45.8667C55.2469 45.8667 53.3333 48.2592 53.3333 51.2C53.2029 53.4192 54.4849 55.4797 56.5333 56.3435V61.8667H51.2V28.8C51.2001 28.3957 50.9717 28.026 50.6101 27.8453L42.6667 23.8741V18.1333C42.6669 17.6569 42.3513 17.2381 41.8933 17.1072L27.7333 13.0613V1.06667C27.7333 0.4776 27.2557 0 26.6667 0H5.33333C4.74427 0 4.26667 0.4776 4.26667 1.06667V61.8667H0V64H64V61.8667H58.6667ZM25.6 61.8667H6.4V59.7333H16V57.6H6.4V53.3333H16V51.2H6.4V46.9333H16V44.8H6.4V40.5333H16V38.4H6.4V34.1333H16V32H6.4V27.7333H16V25.6H6.4V21.3333H16V19.2H6.4V14.9333H16V12.8H6.4V8.53333H16V6.4H6.4V2.13333H25.6V61.8667ZM40.5333 61.8667H27.7333V59.7333H35.2V57.6H27.7333V53.3333H35.2V51.2H27.7333V46.9333H35.2V44.8H27.7333V40.5333H35.2V38.4H27.7333V34.1333H35.2V32H27.7333V27.7333H35.2V25.6H27.7333V21.3333H35.2V19.2H27.7333V15.2811L40.5333 18.9376V61.8667ZM49.0667 61.8667H42.6667V59.7333H45.8667V57.6H42.6667V53.3333H45.8667V51.2H42.6667V46.9333H45.8667V44.8H42.6667V40.5333H45.8667V38.4H42.6667V34.1333H45.8667V32H42.6667V26.2592L49.0667 29.4592V61.8667ZM56.5333 53.9413C55.8169 53.2124 55.4313 52.2213 55.4667 51.2C55.4667 49.4656 56.4437 48 57.6 48C58.7563 48 59.7333 49.4656 59.7333 51.2C59.7679 52.2212 59.3824 53.212 58.6667 53.9413V52.2667H56.5333V53.9413Z" fill="#519F72"/>
</svg>
